<?xml version="1.0" encoding="utf-8"?>
<!-- Generator: Adobe Illustrator 12.0.0, SVG Export Plug-In . SVG Version: 6.00 Build 51448)  -->
<!DOCTYPE svg PUBLIC "-//W3C//DTD SVG 1.1//EN" "http://www.w3.org/Graphics/SVG/1.1/DTD/svg11.dtd" [
	<!ENTITY ns_svg "http://www.w3.org/2000/svg">
	<!ENTITY ns_xlink "http://www.w3.org/1999/xlink">
]>
<svg  version="1.1" id="レイヤー_1" xmlns="&ns_svg;" xmlns:xlink="&ns_xlink;" width="152.316" height="29.498"
	 viewBox="0 0 152.316 29.498" overflow="visible" enable-background="new 0 0 152.316 29.498" xml:space="preserve">
<g>
	<path fill="#B4B4B4" d="M27.661,17.827c-0.61,1.803-1.387,4.216-1.665,5.767c-0.054,0.473,0.417,0.638,1.248,0.721
		c0.194,0,0.167,0.556,0,0.556c-1.33-0.056-2.496-0.056-3.798,0c-0.14,0-0.167-0.556,0-0.556c0.582-0.055,0.97-0.193,1.137-0.525
		c0.942-2.025,1.969-4.88,3.299-8.484c1.247-3.27,2.135-5.794,2.883-8.095c0.138-0.526-0.25-0.804-1.635-0.804
		c-0.167,0-0.139-0.555,0-0.555h3.021c0.526,2.3,1.274,5.129,2.578,9.343c1.192,3.937,2.135,6.957,3.244,9.647
		c-0.943-0.027-1.803-0.027-2.829,0.028c-0.138,0-0.167-0.556,0-0.583c0.749-0.027,1.192-0.249,1.137-0.582
		c-0.304-1.636-0.942-4.021-1.525-5.878H27.661L27.661,17.827z M34.564,17.19c-0.943-2.939-2.023-6.543-2.994-9.232h-0.139
		c-1.054,2.773-2.439,6.404-3.521,9.232H34.564z M35.008,5.851c0.277,0,0.388,0.139,0.471,0.444c0.527,1.831,1.136,4.02,2.495,8.235
		c1.276,4.047,2.496,7.818,3.217,9.231c0.167,0.388,0.609,0.499,1.274,0.526c0.195,0.027,0.167,0.609,0,0.583
		c-1.109-0.056-2.135-0.056-3.299-0.028c-0.416-1.939-1.331-5.683-2.633-9.87c-1.387-4.38-2.357-7.013-3.271-9.121L35.008,5.851
		L35.008,5.851z"/>
	<path fill="#B4B4B4" d="M44.211,7.569c-0.25,1.303-0.444,4.658-0.444,6.376v5.296c0,4.074,0.999,5.101,2.329,5.571
		c0.167,0.055-0.139,0.167-0.361,0.111c-1.635-0.276-2.773-1.497-2.773-4.186c0-2.19,0.195-4.159,0.195-5.961v-3.216
		c0-0.167-0.112-0.305-0.278-0.305c-0.222,0-1.441,0.083-1.664,0.083c-0.111,0.027-0.25-0.222-0.25-0.554
		c0-0.139,0.054-0.195,0.193-0.195h1.664c0.167,0,0.305-0.083,0.305-0.222c0-0.609-0.056-1.414-0.084-1.886
		c0-0.167,0.084-0.333,0.306-0.471L44.211,7.569z M46.901,6.35c0.167-0.083,0.305,0,0.277,0.277
		c-0.056,0.694-0.084,1.969-0.139,3.659c0,0.167,0.11,0.278,0.416,0.25c0.138,0,3.41-0.056,3.908-0.056
		c0.111,0,0.138,0.111,0.138,0.194c0,0.361-0.221,0.638-0.471,0.638c-0.193,0-3.493-0.056-3.715-0.083
		c-0.222-0.028-0.277,0.167-0.277,0.36v6.514c0,5.158,1.026,6.155,2.716,6.155c0.887,0,1.441-0.277,1.691-0.444
		c0.278-0.166,0.306,0.583,0.111,0.693c-0.362,0.221-1.165,0.471-2.386,0.471c-2.661,0-3.714-1.634-3.714-4.713
		c0-1.996,0.167-3.575,0.167-5.682v-1.857c0-2.08-0.277-4.575-0.333-5.573L46.901,6.35z"/>
	<path fill="#B4B4B4" d="M54.338,7.569c-0.25,1.303-0.444,4.658-0.444,6.376v5.296c0,4.074,0.998,5.101,2.328,5.571
		c0.167,0.055-0.138,0.167-0.359,0.111c-1.636-0.276-2.773-1.497-2.773-4.186c0-2.19,0.194-4.159,0.194-5.961v-3.216
		c0-0.167-0.111-0.305-0.276-0.305c-0.223,0-1.443,0.083-1.663,0.083c-0.111,0.027-0.25-0.222-0.25-0.554
		c0-0.139,0.055-0.195,0.194-0.195h1.663c0.167,0,0.306-0.083,0.306-0.222c0-0.609-0.056-1.414-0.084-1.886
		c0-0.167,0.084-0.333,0.304-0.471L54.338,7.569z M57.027,6.35c0.167-0.083,0.305,0,0.279,0.277
		c-0.056,0.694-0.084,1.969-0.14,3.659c0,0.167,0.111,0.278,0.416,0.25c0.138,0,3.41-0.056,3.909-0.056
		c0.109,0,0.138,0.111,0.138,0.194c0,0.361-0.222,0.638-0.471,0.638c-0.195,0-3.494-0.056-3.715-0.083
		c-0.222-0.028-0.278,0.167-0.278,0.36v6.514c0,5.158,1.026,6.155,2.717,6.155c0.887,0,1.442-0.277,1.691-0.444
		c0.277-0.166,0.306,0.583,0.11,0.693c-0.359,0.221-1.164,0.471-2.383,0.471c-2.661,0-3.715-1.634-3.715-4.713
		c0-1.996,0.167-3.575,0.167-5.682v-1.857c0-2.08-0.278-4.575-0.333-5.573L57.027,6.35z"/>
	<path fill="#B4B4B4" d="M63.203,16.968c0-2.273-0.167-4.685-0.25-5.212c-0.11-0.637-0.998-0.693-1.608-0.748
		c-0.167,0-0.138-0.555,0-0.555c0.943,0.055,1.886,0.055,2.828,0.027c-0.138,1.497-0.333,3.965-0.333,6.543v1.414
		c0,1.968,0.222,4.63,0.444,6.402c-0.942-0.026-1.857-0.026-2.772,0.028c-0.139,0-0.167-0.554,0-0.554
		c0.609-0.057,1.497-0.167,1.58-0.749c0.083-0.916,0.111-2.801,0.111-5.213V16.968z M64.59,7.403c-0.999,0-1.858-0.443-1.858-1.497
		c0-0.832,0.721-1.387,1.387-1.387c0.111,0,0.139,0.083,0.056,0.167c-0.277,0.194-0.472,0.665-0.472,1.193
		c0,0.665,0.472,1.081,0.943,1.081c0.61,0,0.97-0.528,0.97-1.11c0-0.582-0.221-0.998-0.443-1.164
		c-0.056-0.083-0.056-0.167,0.056-0.167c1.303-0.027,2.024,0.526,2.024,1.303c0,1.081-0.916,1.581-2.634,1.581H64.59L64.59,7.403z
		 M67.084,18.687c0,2.023,0.111,3.993,0.222,4.852c0.056,0.582,0.998,0.692,1.607,0.748c0.194,0.028,0.167,0.582,0,0.582
		c-1.303-0.055-2.494-0.055-3.603-0.026c0.111-1.109,0.361-3.354,0.361-6.154V16.94c0-3.104-0.222-4.962-0.389-6.432l1.47-0.027
		c0.361,0,0.472,0.11,0.472,0.389c-0.056,1.303-0.139,3.937-0.139,5.601V18.687z"/>
	<path fill="#B4B4B4" d="M71.603,7.569c-0.25,1.303-0.444,4.658-0.444,6.376v5.296c0,4.074,0.998,5.101,2.329,5.571
		c0.166,0.055-0.139,0.167-0.361,0.111c-1.634-0.276-2.772-1.497-2.772-4.186c0-2.19,0.195-4.159,0.195-5.961v-3.216
		c0-0.167-0.112-0.305-0.279-0.305c-0.221,0-1.44,0.083-1.663,0.083c-0.111,0.027-0.25-0.222-0.25-0.554
		c0-0.139,0.054-0.195,0.193-0.195h1.663c0.167,0,0.306-0.083,0.306-0.222c0-0.609-0.056-1.414-0.084-1.886
		c0-0.167,0.084-0.333,0.306-0.471L71.603,7.569z M74.292,6.35c0.167-0.083,0.306,0,0.278,0.277
		c-0.056,0.694-0.083,1.969-0.139,3.659c0,0.167,0.11,0.278,0.416,0.25c0.138,0,3.41-0.056,3.909-0.056
		c0.111,0,0.14,0.111,0.14,0.194c0,0.361-0.222,0.638-0.474,0.638c-0.191,0-3.492-0.056-3.714-0.083
		c-0.222-0.028-0.277,0.167-0.277,0.36v6.514c0,5.158,1.026,6.155,2.716,6.155c0.888,0,1.441-0.277,1.692-0.444
		c0.276-0.166,0.304,0.583,0.111,0.693c-0.362,0.221-1.166,0.471-2.386,0.471c-2.661,0-3.714-1.634-3.714-4.713
		c0-1.996,0.167-3.575,0.167-5.682v-1.857c0-2.08-0.277-4.575-0.333-5.573L74.292,6.35z"/>
	<path fill="#B4B4B4" d="M80.822,17.743c0,4.52,0.831,6.266,2.385,6.931c0.166,0.083-0.084,0.25-0.333,0.166
		c-1.662-0.417-2.8-1.747-2.8-4.685c0-1.304,0.111-2.717,0.111-4.074c0-1.277-0.027-3.578-0.221-4.41
		c-0.139-0.582-0.888-0.61-1.553-0.665c-0.166,0-0.139-0.555,0-0.555c0.831,0.055,1.802,0.055,2.801,0.027
		c-0.195,2.052-0.389,3.826-0.389,5.323L80.822,17.743L80.822,17.743z M90.497,16.553c0-1.94-0.111-4.243-0.22-4.88
		c-0.084-0.526-0.805-0.609-1.442-0.665c-0.138,0-0.11-0.555,0-0.555c0.805,0.055,1.72,0.055,2.661,0.027
		c-0.11,1.109-0.359,3.466-0.359,6.21v1.413c0,3.105,0.276,5.241,0.444,6.71l-0.749,0.026c-0.194,0-0.277-0.138-0.277-0.359
		c0-0.61,0.027-1.886,0.027-2.744c-0.527,1.69-1.803,3.242-4.076,3.242c-2.744,0-3.908-1.691-3.881-4.796
		c0-1.33,0.028-2.688,0.028-3.771v-0.858c0-1.719-0.139-3.549-0.277-5.047h1.439c0.334,0,0.527,0.139,0.5,0.444
		c-0.083,1.137-0.221,3.133-0.221,4.879v2.272c0,4.353,0.831,6.072,2.799,6.044c1.803,0,2.911-1.524,3.327-2.966
		c0.221-0.887,0.276-1.857,0.276-3.299V16.553L90.497,16.553z M92.965,16.886c0-1.969-0.167-4.659-0.389-6.377h1.498
		c0.305,0,0.499,0.112,0.499,0.444c-0.084,1.026-0.193,3.299-0.193,6.044v1.33c0,2.328,0.11,4.602,0.276,5.297
		c0.111,0.609,0.942,0.609,1.553,0.691c0.166,0,0.138,0.582,0,0.555c-1.054-0.055-2.301-0.055-3.493-0.027
		c0.139-1.497,0.25-3.798,0.25-6.348L92.965,16.886L92.965,16.886z"/>
	<path fill="#B4B4B4" d="M96.236,17.522c0-4.047,2.384-6.515,4.603-7.014c0.192-0.055,0.497,0.056,0.331,0.112
		c-2.245,0.804-3.854,3.271-3.854,6.904c0,3.852,1.636,6.319,3.632,7.151c0.167,0.084-0.084,0.221-0.332,0.139
		C98.564,24.286,96.236,21.931,96.236,17.522z M108.351,16.302c0,3.383,0.11,6.403,0.583,8.54h-0.749
		c-0.14,0-0.221-0.11-0.249-0.305c-0.028-0.25-0.084-0.832-0.111-1.414c-0.444,0.997-1.637,1.857-3.3,1.857
		c-3.409,0-5.323-3.271-5.323-7.456c0-3.938,1.97-7.182,5.739-7.182c1.498,0,2.385,0.388,2.744,0.665V9.981
		c0-1.165-0.055-2.912-0.221-4.187c-0.056-0.472-1.025-0.61-1.663-0.638c-0.166,0-0.138-0.582,0-0.582
		c0.859,0.055,1.858,0.055,2.883,0.027c-0.193,2.773-0.332,6.071-0.332,8.677L108.351,16.302L108.351,16.302z M107.714,17.106
		c0-3.494-0.085-4.437-0.222-4.963c-0.166-0.444-0.998-1.165-2.328-1.165c-2.827,0-4.048,3.021-4.048,6.543
		c0,3.743,1.33,6.681,3.714,6.681c1.635,0,2.522-1.082,2.689-1.884c0.139-0.777,0.194-1.969,0.194-5.186V17.106z M111.594,18.104
		c0,2.218,0.084,4.603,0.306,5.49c0.138,0.526,0.83,0.637,1.497,0.721c0.192,0,0.166,0.581,0,0.554
		c-1.138-0.055-2.385-0.055-3.41-0.026c0.139-2.218,0.193-4.27,0.193-7.956v-4.188c0-2.467-0.193-5.517-0.417-8.068h1.607
		c0.277,0,0.418,0.167,0.39,0.443c-0.084,1.636-0.167,5.461-0.167,7.763L111.594,18.104L111.594,18.104z"/>
	<path fill="#B4B4B4" d="M113.375,17.633c0-4.13,2.162-6.57,4.269-7.125c0.192-0.055,0.499,0.028,0.332,0.112
		c-1.939,0.748-3.521,3.16-3.521,7.013c0,3.882,1.969,6.319,3.937,7.041c0.14,0.055-0.193,0.221-0.359,0.138
		C115.787,24.203,113.375,21.763,113.375,17.633z M118.226,17.55c0,4.353,1.773,6.821,5.017,6.821c2.661,0,3.992-1.608,4.38-3.022
		c0.055-0.193,0.555-0.193,0.583-0.028c0.027,0.5,0.027,1.442-0.222,1.941c-0.276,0.665-1.304,1.719-4.852,1.719
		c-4.686,0-6.792-2.938-6.792-7.374c0-4.214,1.774-7.263,5.019-7.263c3.049,0,4.131,3.021,4.186,7.208L118.226,17.55L118.226,17.55z
		 M123.881,16.968c0.39,0,0.527-0.141,0.527-0.473c-0.027-2.993-0.775-5.488-2.827-5.488c-2.329,0-3.3,2.523-3.354,5.961H123.881z
		 M127.18,17.604c0.221-3.438-0.692-5.988-2.634-6.93c-0.166-0.111,0.139-0.195,0.276-0.167c2.662,0.637,4.16,3.354,4.16,6.625
		c0,0.333-0.14,0.472-0.333,0.472H127.18z"/>
</g>
</svg>
