<?xml version="1.0" encoding="utf-8"?>
<!-- Generator: Adobe Illustrator 12.0.0, SVG Export Plug-In . SVG Version: 6.00 Build 51448)  -->
<!DOCTYPE svg PUBLIC "-//W3C//DTD SVG 1.1//EN" "http://www.w3.org/Graphics/SVG/1.1/DTD/svg11.dtd" [
	<!ENTITY ns_svg "http://www.w3.org/2000/svg">
	<!ENTITY ns_xlink "http://www.w3.org/1999/xlink">
]>
<svg  version="1.1" id="レイヤー_1" xmlns="&ns_svg;" xmlns:xlink="&ns_xlink;" width="150" height="30"
	 viewBox="0.658 -0.751 150 30" overflow="visible" enable-background="new 0.658 -0.751 150 30" xml:space="preserve">
<g>
	<g>
		<g>
			<path fill="#FFFFFF" d="M9.001,9.659c0-3.168-0.107-5.074-0.242-6.283C8.733,2.92,7.874,2.786,7.122,2.759
				c-0.161,0-0.135-0.591,0-0.591c0.939,0.054,1.879,0.054,2.899,0.027C9.941,3.028,9.699,6.894,9.699,9.793v2.416
				c0,2.523,0.269,6.578,0.483,8.403c-0.993-0.026-1.96-0.026-2.766,0.025c-0.134,0.027-0.161-0.536,0-0.536
				c0.618-0.054,1.316-0.134,1.37-0.672c0.188-1.208,0.215-3.596,0.215-7.06V9.659z M11.471,10.061c0-3.249-0.295-6.765-0.403-7.866
				c2.9,0.053,6.417,0,8.698-0.027c0.242,0,0.376,0.081,0.376,0.295c0.107,0.591,0.188,1.906,0.188,2.578
				c0,0.188-0.537,0.188-0.564,0.027c-0.375-1.719-0.778-2.202-3.194-2.202L13.403,2.84c-0.242,0-0.349,0.134-0.349,0.43
				l-0.107,7.437l3.92-0.054c1.45-0.026,2.067-0.134,2.523-0.134c0.242,0-0.027,0.967-0.349,0.967c-0.322,0-0.967-0.134-3.141-0.134
				l-2.954-0.027v3.034c0,1.315,0.134,4.296,0.214,4.967c0.054,0.484,0.162,0.646,0.537,0.646l3.195-0.027
				c2.577,0,2.926-0.589,3.437-2.282c0.053-0.215,0.59-0.188,0.59,0c0,0.511-0.161,1.907-0.295,2.712
				c-0.027,0.189-0.134,0.295-0.375,0.295c-2.067,0-6.148-0.079-9.102-0.054c0.107-1.208,0.322-5.047,0.322-8.001L11.471,10.061
				L11.471,10.061z"/>
		</g>
		<g>
			<path fill="#FFFFFF" d="M27.045,20.612c-0.188,0-0.295-0.107-0.376-0.35c-0.51-1.718-1.182-3.73-2.228-6.523
				c-0.967-2.55-1.772-4.564-2.47-6.014c-0.161-0.349-0.618-0.429-1.342-0.483c-0.161,0-0.134-0.563,0-0.563
				c0.698,0.053,1.423,0.053,2.282,0.026c0.456,1.987,1.181,4.269,2.174,6.874c0.967,2.738,1.879,4.939,2.873,7.007L27.045,20.612z
				 M29.085,20.586c-0.564-1.88-1.343-4.564-2.309-7.249c-0.939-2.658-1.772-4.859-2.658-6.632c1.289,0.027,2.685,0.027,4.054-0.026
				c0.161,0,0.161,0.563,0,0.563c-0.913,0.027-1.611,0.188-1.53,0.564c0.242,1.208,0.698,2.792,1.503,5.289
				c0.859,2.471,1.53,4.081,2.175,5.853h0.161c0.644-1.692,1.288-3.518,1.986-5.584c0.645-1.96,1.182-3.732,1.665-5.611
				c0.081-0.349-0.457-0.51-1.342-0.51c-0.134,0-0.107-0.563,0-0.563c1.315,0.053,2.685,0.081,3.974,0c0.161,0,0.161,0.563,0,0.563
				C36.226,7.27,35.555,7.323,35.394,7.7c-0.886,2.013-1.611,3.865-2.309,5.879c-0.725,2.12-1.584,4.564-2.255,6.765
				c-0.081,0.161-0.162,0.242-0.322,0.242H29.085z"/>
		</g>
		<g>
			<path fill="#FFFFFF" d="M36.262,13.632c0-4,2.094-6.362,4.134-6.9c0.188-0.053,0.483,0.027,0.322,0.108
				c-1.879,0.725-3.41,3.061-3.41,6.792c0,3.759,1.906,6.121,3.813,6.819c0.134,0.054-0.188,0.215-0.349,0.135
				C38.597,19.995,36.262,17.633,36.262,13.632z M40.959,13.552c0,4.215,1.718,6.604,4.859,6.604c2.578,0,3.866-1.557,4.243-2.927
				c0.053-0.188,0.537-0.188,0.563-0.026c0.027,0.483,0.027,1.397-0.215,1.88c-0.269,0.644-1.262,1.664-4.698,1.664
				c-4.537,0-6.578-2.846-6.578-7.142c0-4.081,1.718-7.035,4.859-7.035c2.953,0,4,2.926,4.054,6.98L40.959,13.552L40.959,13.552z
				 M46.436,12.988c0.376,0,0.51-0.134,0.51-0.456c-0.027-2.9-0.751-5.316-2.738-5.316c-2.255,0-3.195,2.443-3.249,5.772H46.436z
				 M49.631,13.605c0.215-3.329-0.672-5.799-2.551-6.712c-0.161-0.107,0.134-0.188,0.269-0.161c2.577,0.618,4.027,3.249,4.027,6.417
				c0,0.322-0.134,0.456-0.322,0.456H49.631z"/>
		</g>
		<g>
			<path fill="#FFFFFF" d="M53.889,13.015c0-2.255-0.135-4.51-0.242-5.155c-0.107-0.537-0.939-0.59-1.583-0.645
				c-0.134,0-0.107-0.537,0-0.537c0.939,0.053,1.853,0.053,2.765,0.026c-0.134,1.665-0.322,3.866-0.322,6.336v1.369
				c0,1.853,0.188,4.456,0.403,6.201c-0.886-0.026-1.745-0.026-2.604,0.025c-0.107,0-0.134-0.536,0-0.563
				c0.698,0,1.369-0.216,1.422-0.646c0.162-0.992,0.162-2.952,0.162-5.154V13.015z M56.278,13.23c0-3.034-0.242-5.074-0.376-6.498
				l1.343-0.027c0.241,0,0.402,0.135,0.43,0.403c0,0.564-0.107,2.39-0.107,3.518c0.43-2.068,2.121-4.054,4.483-4.054
				c1.101,0,1.664,0.483,1.825,0.993c0.134,0.456,0.054,1.101-0.026,1.45c-0.027,0.107-0.483,0.134-0.51,0
				c-0.242-0.671-0.805-1.262-1.745-1.262c-1.745,0-3.168,1.611-3.651,3.383c-0.188,0.618-0.295,1.718-0.295,2.551v1.342
				c0,1.665,0.135,3.732,0.242,4.376c0.08,0.455,0.778,0.618,1.798,0.698c0.188,0,0.161,0.537,0,0.537
				c-1.208-0.054-2.443-0.054-3.758-0.026c0.134-1.289,0.349-3.382,0.349-5.959V13.23z"/>
		</g>
		<g>
			<path fill="#FFFFFF" d="M64.348,22.869c0-1.666,1.342-2.874,2.899-3.249c0.188-0.055,0.402,0.08,0.269,0.133
				c-1.208,0.51-2.121,1.638-2.121,3.033c0,1.584,0.832,2.713,2.469,3.249c0.135,0.055-0.027,0.189-0.215,0.135
				C65.609,25.848,64.348,24.586,64.348,22.869z M64.832,11.458c0-2.443,1.692-4.35,3.571-4.726c0.188-0.053,0.43,0.054,0.269,0.135
				c-1.611,0.618-2.792,2.282-2.792,4.591c0,2.094,0.94,3.49,2.229,4.188c0.107,0.053-0.054,0.188-0.295,0.107
				C66.255,15.298,64.832,13.74,64.832,11.458z M72.081,26.331c-2.953,0-4.859-1.397-4.859-3.598c0-1.664,1.369-2.872,2.739-3.624
				c-0.886-0.269-1.611-0.698-1.611-1.397c0-0.698,0.725-1.287,1.664-1.717c-0.805-0.351-2.309-1.746-2.309-4.539
				c0-2.792,1.691-4.886,4.322-4.886c2.658,0,4.349,2.094,4.349,4.886c0,2.819-1.691,4.939-4.349,4.939
				c-0.43,0-0.939-0.079-1.477-0.16c-0.752,0.403-1.208,0.778-1.208,1.316c0,0.563,0.537,1.071,3.624,1.476
				c3.222,0.455,4.565,1.478,4.565,3.437c0,2.281-2.042,3.866-5.424,3.866L72.081,26.331L72.081,26.331z M72.483,25.714
				c2.577,0,4-1.288,4-3.167c0-1.638-1.316-2.389-3.598-2.818c-1.074-0.161-1.611-0.27-2.229-0.404
				c-1.02,0.671-1.665,1.879-1.665,3.355c0,1.907,1.396,3.034,3.463,3.034H72.483z M72.403,15.754c1.879,0,2.926-1.96,2.926-4.296
				c0-2.309-1.047-4.269-2.953-4.269s-2.9,1.959-2.9,4.269c0,2.336,0.886,4.296,2.9,4.296H72.403z M75.652,15.941
				c1.53-0.698,2.549-2.309,2.549-4.483c0-2.309-1.182-3.973-2.63-4.564c-0.108-0.026-0.027-0.161,0.188-0.161
				c2.282-0.027,3.893-0.134,5.155-0.161c0.161,0,0.214,0.134,0.214,0.269c0,0.242-0.214,0.671-0.43,0.671
				c-0.67,0-2.2-0.241-3.141-0.295c1.154,0.591,2.31,1.826,2.31,4.242c0,2.336-1.505,4.16-4.002,4.645
				C75.704,16.157,75.516,16.021,75.652,15.941z M76.752,26.035c1.61-0.536,2.605-1.958,2.605-3.544c0-1.343-0.727-2.604-2.257-3.14
				c-0.16-0.028,0.08-0.161,0.27-0.136c2.522,0.269,3.677,1.638,3.677,3.248c0,1.906-1.396,3.329-4.025,3.73
				C76.833,26.251,76.563,26.115,76.752,26.035z"/>
		</g>
		<g>
			<path fill="#FFFFFF" d="M83.96,13.015c0-2.255-0.134-4.51-0.241-5.155c-0.106-0.537-0.939-0.59-1.585-0.645
				c-0.133,0-0.106-0.537,0-0.537c0.94,0.053,1.854,0.053,2.768,0.026c-0.136,1.665-0.323,3.866-0.323,6.336v1.369
				c0,1.853,0.188,4.456,0.403,6.201c-0.886-0.026-1.745-0.026-2.604,0.025c-0.107,0-0.134-0.536,0-0.563
				c0.698,0,1.369-0.216,1.424-0.646c0.16-0.992,0.16-2.952,0.16-5.154L83.96,13.015L83.96,13.015z M86.349,13.23
				c0-3.034-0.242-5.074-0.376-6.498l1.343-0.027c0.241,0,0.402,0.135,0.429,0.403c0,0.564-0.107,2.39-0.107,3.518
				c0.43-2.068,2.122-4.054,4.485-4.054c1.1,0,1.664,0.483,1.826,0.993c0.133,0.456,0.053,1.101-0.027,1.45
				c-0.026,0.107-0.482,0.134-0.51,0c-0.241-0.671-0.805-1.262-1.745-1.262c-1.744,0-3.168,1.611-3.65,3.383
				c-0.189,0.618-0.296,1.718-0.296,2.551v1.342c0,1.665,0.135,3.732,0.242,4.376c0.08,0.455,0.778,0.618,1.799,0.698
				c0.188,0,0.161,0.537,0,0.537c-1.208-0.054-2.443-0.054-3.761-0.026c0.137-1.289,0.351-3.382,0.351-5.959V13.23H86.349z"/>
		</g>
		<g>
			<path fill="#FFFFFF" d="M94.59,13.632c0-4,2.093-6.362,4.134-6.9c0.188-0.053,0.483,0.027,0.323,0.108
				c-1.88,0.725-3.41,3.061-3.41,6.792c0,3.759,1.905,6.121,3.812,6.819c0.135,0.054-0.188,0.215-0.349,0.135
				C96.925,19.995,94.59,17.633,94.59,13.632z M99.287,13.552c0,4.215,1.718,6.604,4.86,6.604c2.577,0,3.866-1.557,4.241-2.927
				c0.055-0.188,0.536-0.188,0.564-0.026c0.025,0.483,0.025,1.397-0.216,1.88c-0.269,0.644-1.263,1.664-4.699,1.664
				c-4.536,0-6.576-2.846-6.576-7.142c0-4.081,1.718-7.035,4.858-7.035c2.953,0,4.001,2.926,4.056,6.98L99.287,13.552L99.287,13.552
				z M104.764,12.988c0.374,0,0.509-0.134,0.509-0.456c-0.027-2.9-0.753-5.316-2.737-5.316c-2.256,0-3.196,2.443-3.249,5.772
				H104.764z M107.959,13.605c0.214-3.329-0.672-5.799-2.552-6.712c-0.161-0.107,0.136-0.188,0.269-0.161
				c2.577,0.618,4.027,3.249,4.027,6.417c0,0.322-0.134,0.456-0.322,0.456H107.959z"/>
		</g>
		<g>
			<path fill="#FFFFFF" d="M111.103,13.632c0-4,2.093-6.362,4.134-6.9c0.188-0.053,0.484,0.027,0.323,0.108
				c-1.88,0.725-3.411,3.061-3.411,6.792c0,3.759,1.906,6.121,3.812,6.819c0.136,0.054-0.188,0.215-0.349,0.135
				C113.438,19.995,111.103,17.633,111.103,13.632z M115.802,13.552c0,4.215,1.719,6.604,4.858,6.604
				c2.578,0,3.866-1.557,4.241-2.927c0.055-0.188,0.538-0.188,0.565-0.026c0.025,0.483,0.025,1.397-0.216,1.88
				c-0.27,0.644-1.262,1.664-4.697,1.664c-4.539,0-6.579-2.846-6.579-7.142c0-4.081,1.719-7.035,4.86-7.035
				c2.952,0,4,2.926,4.054,6.98L115.802,13.552L115.802,13.552z M121.277,12.988c0.377,0,0.511-0.134,0.511-0.456
				c-0.026-2.9-0.753-5.316-2.739-5.316c-2.255,0-3.194,2.443-3.247,5.772H121.277z M124.472,13.605
				c0.215-3.329-0.67-5.799-2.551-6.712c-0.16-0.107,0.133-0.188,0.27-0.161c2.576,0.618,4.026,3.249,4.026,6.417
				c0,0.322-0.135,0.456-0.323,0.456H124.472z"/>
		</g>
		<g>
			<path fill="#FFFFFF" d="M128.729,13.257c0-2.47-0.161-4.779-0.24-5.37c-0.08-0.537-0.969-0.59-1.585-0.645
				c-0.133-0.027-0.106-0.563,0-0.563c0.939,0.053,1.854,0.053,2.766,0.026c-0.107,1.45-0.321,3.839-0.321,6.685v1.021
				c0,1.906,0.24,4.482,0.428,6.201c-0.886-0.026-1.797-0.026-2.686,0.025c-0.107,0-0.133-0.536,0-0.563
				c0.646-0.055,1.425-0.216,1.478-0.591c0.135-0.992,0.161-2.818,0.161-4.886V13.257z M131.119,13.283
				c0-3.06-0.268-5.101-0.375-6.551h1.18c0.352-0.027,0.485,0.081,0.511,0.323c0,0.59-0.053,1.96-0.025,2.792
				c0.455-1.826,1.854-3.275,3.811-3.275c2.283,0,3.169,1.611,3.169,3.919c0,1.315-0.053,2.551-0.053,4.054v0.966
				c0,2.522,0.269,4.322,0.375,5.101c-0.805-0.026-1.583-0.026-2.335,0.025c-0.108,0-0.137-0.536,0-0.563
				c0.616-0.055,1.1-0.188,1.152-0.537c0.161-0.859,0.188-2.123,0.188-4.242v-1.852c0-4.188-0.644-6.067-2.656-6.067
				c-1.692,0-2.793,1.343-3.355,3.141c-0.162,0.725-0.216,1.853-0.216,3.061v1.342c0,2.846,0.106,3.84,0.241,4.592
				c0.08,0.43,0.537,0.537,1.153,0.59c0.161,0,0.136,0.563,0,0.537c-0.968-0.054-2.04-0.054-3.115-0.026
				c0.108-1.073,0.35-3.248,0.35-5.959L131.119,13.283L131.119,13.283z M141.106,14.196c0-4.913-0.536-6.631-1.96-7.356
				c-0.107-0.054,0.055-0.161,0.242-0.135c2.282,0.295,3.274,1.88,3.274,4.323c0,1.477-0.188,3.061-0.188,4.51
				c0,1.262,0.026,2.899,0.269,3.92c0.107,0.484,0.833,0.564,1.45,0.617c0.161,0.027,0.135,0.564,0,0.564
				c-1.128-0.054-2.255-0.054-3.356-0.026c0.162-2.067,0.269-3.705,0.269-5.154V14.196L141.106,14.196z"/>
		</g>
	</g>
</g>
</svg>
