<?xml version="1.0" encoding="utf-8"?>
<!-- Generator: Adobe Illustrator 12.0.0, SVG Export Plug-In . SVG Version: 6.00 Build 51448)  -->
<!DOCTYPE svg PUBLIC "-//W3C//DTD SVG 1.1//EN" "http://www.w3.org/Graphics/SVG/1.1/DTD/svg11.dtd" [
	<!ENTITY ns_svg "http://www.w3.org/2000/svg">
	<!ENTITY ns_xlink "http://www.w3.org/1999/xlink">
]>
<svg  version="1.1" id="レイヤー_1" xmlns="&ns_svg;" xmlns:xlink="&ns_xlink;" width="150" height="30"
	 viewBox="0.658 -0.751 150 30" overflow="visible" enable-background="new 0.658 -0.751 150 30" xml:space="preserve">
<g>
	<image opacity="0.75" width="520" height="133" xlink:href="31B40ED9.png"  transform="matrix(0.2057 0 0 0.2057 21.8113 0.3823)">
	</image>
	<g>
		
			<image opacity="0.75" width="493" height="105" xlink:href="31B40EDA.png"  transform="matrix(0.2057 0 0 0.2057 24.6058 3.1767)">
		</image>
		<g>
			<g>
				<g>
					<path fill="#009696" d="M32.303,23.096c-0.16,0-0.293-0.133-0.373-0.399c-0.506-2.293-1.226-5.251-2.159-9.17
						c-0.853-3.492-1.546-5.784-2.132-7.65c-0.107-0.453-0.747-0.506-1.413-0.533c-0.16,0-0.16-0.56,0-0.56
						c0.8,0.053,1.68,0.053,2.506,0.026c0.373,2.133,0.826,5.065,1.679,8.557c0.933,3.918,1.919,7.01,2.879,9.703L32.303,23.096z
						 M41.286,4.837c0.533,2.292,1.28,5.784,2.106,8.796c0.933,3.492,2.079,6.691,3.119,9.436l-0.986,0.026
						c-0.187,0-0.32-0.133-0.373-0.399c-0.613-2.426-1.413-5.278-2.373-8.77c-0.879-3.119-1.413-4.691-1.999-6.744h-0.133
						c-0.693,2.132-1.413,4.238-2.106,6.477c-0.853,2.772-1.732,5.971-2.612,9.117c-0.054,0.187-0.133,0.293-0.32,0.293h-1.252
						c-0.586-3.039-1.359-6.211-2.266-10.022c-0.799-3.252-1.466-5.917-2.266-8.237c1.173,0.027,2.399,0.053,3.679-0.026
						c0.16-0.027,0.16,0.533,0,0.56c-0.533,0.053-1.2,0.213-1.173,0.613c0.16,1.706,0.506,3.652,1.199,6.797
						c0.773,3.333,1.359,5.332,2,7.73h0.187c0.72-2.398,1.359-4.265,2.186-7.01c0.72-2.319,1.573-5.464,2.346-8.236
						c0.08-0.32,0.16-0.4,0.293-0.4H41.286z M43.872,4.837c0.293,0,0.453,0.106,0.533,0.479c0.48,1.973,1.066,4.265,1.946,7.304
						c0.933,3.252,1.679,5.625,2.399,7.891h0.133c0.56-2.346,1.226-4.745,1.839-7.384c0.64-2.692,1.253-5.411,1.52-7.197
						c0.053-0.4-0.56-0.56-1.359-0.586c-0.16,0-0.133-0.56,0-0.56c1.279,0.053,2.585,0.026,3.972,0c0.16,0,0.187,0.533,0,0.56
						c-0.506,0.027-1.093,0.08-1.279,0.586c-0.747,1.813-1.439,4.611-2.159,7.357c-0.693,2.692-1.52,6.051-2.319,9.462
						c-0.026,0.188-0.133,0.32-0.293,0.32h-1.226c-0.613-2.719-1.52-6.424-2.559-9.969c-0.879-2.959-1.839-6.104-2.692-8.263H43.872
						z"/>
				</g>
				<g>
					<path fill="#009696" d="M54.987,13.953c0-4.771,2.319-8.316,5.118-9.116c0.187-0.053,0.506,0.08,0.346,0.16
						c-2.666,1.093-4.372,4.612-4.372,8.957s1.706,7.863,4.372,8.983c0.16,0.106-0.187,0.187-0.346,0.133
						C57.306,22.27,54.987,18.725,54.987,13.953z M64.077,23.229c-4.052,0-6.185-4.505-6.185-9.276s2.133-9.276,6.211-9.276
						c4.025,0,6.211,4.505,6.211,9.276s-2.186,9.276-6.211,9.276H64.077z M64.556,22.456c3.119,0,4.665-4.265,4.665-8.503
						S67.675,5.45,64.53,5.45c-3.146,0-4.691,4.265-4.691,8.503s1.546,8.503,4.691,8.503H64.556z M67.728,22.963
						c2.666-1.146,4.398-4.665,4.398-9.01s-1.732-7.863-4.372-8.957c-0.16-0.053,0.16-0.187,0.293-0.16
						c3.492,0.613,5.971,4.185,5.971,9.116c0,4.932-2.532,8.423-5.971,9.116C67.862,23.123,67.596,23.016,67.728,22.963z"/>
				</g>
				<g>
					<path fill="#009696" d="M77.378,11.954c0-3.359-0.106-4.745-0.213-5.971c-0.054-0.506-0.88-0.613-1.653-0.64
						c-0.16,0-0.133-0.56,0-0.56c1.066,0.053,1.919,0.053,2.852,0.026c-0.08,0.88-0.293,3.519-0.293,7.011v2.985
						c0,3.039,0.24,7.171,0.373,8.29c-0.88-0.026-1.652-0.026-2.666,0.027c-0.133,0-0.16-0.533,0-0.561
						c0.719-0.053,1.333-0.106,1.386-0.586c0.133-1.279,0.213-3.865,0.213-6.291V11.954z M79.83,11.794
						c0-3.119-0.267-5.438-0.399-6.771c0.933-0.187,2.053-0.293,3.545-0.293c3.358,0,4.932,1.839,4.932,4.691
						c0,2.559-1.68,4.398-3.572,5.011v0.053c0.854,0.319,1.52,1.013,1.893,1.945c0.613,1.68,1.6,5.092,2.933,6.638l-0.906,0.026
						c-0.294,0-0.561-0.106-0.72-0.373c-0.64-0.986-1.439-4.558-1.999-5.971c-0.32-0.746-0.854-1.546-1.68-1.813
						c-0.293-0.106-0.666-0.134-1.146-0.134c-0.479,0-0.986,0-1.439,0.027v2.132c0,3.039,0.08,4.292,0.214,4.985
						c0.08,0.453,0.692,0.56,1.412,0.612c0.187,0.027,0.16,0.587,0,0.561c-1.039-0.054-2.266-0.054-3.411-0.027
						c0.106-1.279,0.346-4.531,0.346-7.729V11.794z M81.269,13.74c0,0.373,0.267,0.453,1.387,0.453c2.825,0,4.158-2.399,4.158-4.771
						c0-2.373-1.093-4.132-3.599-4.132c-1.253,0-1.893,0.293-1.893,0.613L81.269,13.74z M91.586,9.422
						c0,2.666-2.159,4.371-3.652,4.984v0.053c0.72,0.32,1.279,1.12,1.6,1.866c0.746,1.68,1.52,4.158,2.506,5.678
						c0.213,0.347,0.772,0.48,1.412,0.533c0.187,0.026,0.16,0.613,0,0.587c-0.879-0.054-2.025-0.054-3.065-0.027
						c-0.879-1.279-1.839-5.038-2.452-6.478c-0.373-0.879-0.933-1.705-1.813-2.132v-0.053c2.213-0.933,3.599-2.692,3.599-5.038
						c0-2.266-1.119-3.758-2.719-4.345c-0.16-0.054,0.08-0.187,0.239-0.16C89.693,5.184,91.586,6.623,91.586,9.422z"/>
				</g>
				<g>
					<path fill="#009696" d="M95.45,12.78c0-3.625-0.133-5.598-0.267-6.851c-0.053-0.506-0.64-0.533-1.572-0.586
						c-0.16,0-0.134-0.56,0-0.56c0.88,0.053,1.865,0.053,2.825,0.026c-0.106,1.893-0.293,4.479-0.293,7.517v2.612
						c0,1.652,0.133,5.091,0.399,8.156c-0.933-0.026-1.999-0.026-2.692,0.027c-0.133,0-0.159-0.533,0-0.533
						c0.533-0.08,1.413-0.106,1.439-0.533c0.107-1.173,0.16-4.745,0.16-7.197V12.78z M97.902,11.794
						c0-3.119-0.239-5.625-0.346-6.984c1.172,0.027,2.292,0.027,3.278-0.026c0.16-0.027,0.187,0.533,0,0.56
						c-0.56,0.027-1.253,0.053-1.307,0.506c-0.159,1.653-0.213,3.759-0.213,5.944v2.346c0,0.16,0.133,0.187,0.267,0.053
						c0.427-0.4,0.88-0.879,1.386-1.466c0.693,1.679,1.439,3.012,2.612,4.958c1.333,2.187,2.346,3.732,3.679,5.385l-1.253,0.026
						c-0.187,0-0.293-0.133-0.373-0.267c-0.746-1.386-1.493-2.799-2.639-4.691c-0.906-1.492-1.68-2.745-2.319-3.678
						c-0.133-0.213-0.24-0.213-0.746,0.346c-0.56,0.561-0.613,0.693-0.613,0.986v0.64c0,1.68,0.16,5.092,0.24,5.651
						c0.053,0.427,0.746,0.453,1.306,0.507c0.187,0,0.16,0.56,0,0.533c-1.066-0.054-2.053-0.054-3.278-0.027
						c0.08-1.039,0.319-3.812,0.319-7.57V11.794z M103.9,9.742c1.492-1.52,2.745-2.932,3.651-3.999c0.16-0.24-0.319-0.347-1.332-0.4
						c-0.16-0.027-0.134-0.586,0.053-0.56c1.173,0.106,3.172,0.053,4.132,0c0.187-0.027,0.187,0.533,0.026,0.56
						c-0.56,0.027-1.013,0.106-1.439,0.453c-1.973,1.759-3.838,3.652-5.305,5.118c-0.187,0.213-0.187,0.399-0.053,0.666
						c0.666,1.146,1.546,2.719,2.825,4.772c1.413,2.266,2.586,4.051,3.679,5.464c0.479,0.587,0.853,0.693,1.706,0.746
						c0.187,0.027,0.187,0.587,0,0.561c-1.066-0.054-2.426-0.054-3.172-0.027c-0.96-1.893-2.159-4.024-3.519-6.211
						c-1.307-2.079-2.293-3.518-3.359-4.984C102.487,11.207,103.127,10.515,103.9,9.742z"/>
				</g>
				<g>
					<path fill="#009696" d="M115.763,23.229c-2.319,0-3.732-0.56-3.839-1.093s-0.267-1.786-0.267-2.772
						c0-0.213,0.587-0.213,0.613,0c0.399,1.999,1.493,3.198,3.625,3.198c2.426,0,3.999-1.146,3.999-3.385
						c0-2.133-1.307-3.438-3.839-4.558c-2.799-1.306-4.425-3.092-4.425-5.278c0-2.586,1.973-4.212,3.599-4.532
						c0.16-0.026,0.479,0.107,0.293,0.187c-1.546,0.533-2.799,2.026-2.799,4.159c0,2.159,1.307,3.812,3.865,5.038
						c2.719,1.253,4.345,2.559,4.345,4.905c0,2.479-1.946,4.132-5.145,4.132H115.763z M119.841,22.936
						c1.759-0.747,2.692-2.319,2.692-4.186c0-2.639-1.653-4.211-4.158-5.304c-2.453-1.173-4.105-2.399-4.079-4.532
						c-0.026-2.505,2-4.238,5.438-4.238c2.372,0,3.438,0.533,3.545,0.906c0.133,0.56,0.213,1.866,0.213,2.719
						c0,0.213-0.56,0.24-0.612,0c-0.453-1.893-1.2-3.012-3.279-3.012c-2.105,0-3.545,1.199-3.545,3.199
						c0,1.946,1.279,3.039,3.492,4.078c2.745,1.253,4.771,2.852,4.771,5.705c0,2.852-2,4.451-4.159,4.798
						C120.001,23.123,119.734,22.989,119.841,22.936z"/>
				</g>
			</g>
		</g>
	</g>
</g>
</svg>
