<?xml version="1.0" encoding="utf-8"?>
<!-- Generator: Adobe Illustrator 24.1.0, SVG Export Plug-In . SVG Version: 6.00 Build 0)  -->
<svg version="1.1" xmlns="http://www.w3.org/2000/svg" xmlns:xlink="http://www.w3.org/1999/xlink" x="0px" y="0px"
	 viewBox="0 0 512 512" style="enable-background:new 0 0 512 512;" xml:space="preserve">
<style type="text/css">
	.st0{opacity:0.7;}
	.st1{fill:none;stroke:#FFFFFF;stroke-width:30;stroke-linecap:round;stroke-linejoin:round;}
	.st2{fill:#009D95;}
</style>
<g id="_x32_">
	<g>
		<g class="st0">
			<path class="st1" d="M425.3,159.4c-1.5-7.8-5-15-9.7-20.9c-1-1.3-2.1-2.4-3.2-3.6c-8.5-8.6-20.4-14-33.4-14H133
				c-13,0-24.9,5.4-33.4,14c-1.1,1.2-2.2,2.3-3.2,3.6c-4.8,5.9-8.2,13.1-9.7,20.9c-0.6,3-0.9,6.1-0.9,9.3v174.7
				c0,6.7,1.4,13.1,3.9,19c2.3,5.6,5.8,10.6,9.9,14.8c1.1,1.1,2.1,2,3.3,3c8.2,6.8,18.7,11,30.1,11h246c11.4,0,22-4.1,30.1-11
				c1.1-0.9,2.2-1.9,3.3-3c4.2-4.2,7.6-9.2,10-14.8v0c2.5-5.8,3.9-12.2,3.9-18.9V168.6C426.2,165.5,425.9,162.4,425.3,159.4z
				 M116.7,152.2c4.2-4.3,9.9-6.8,16.3-6.8h246c6.4,0,12.1,2.6,16.3,6.8c0.7,0.8,1.4,1.6,2.1,2.4L268.4,268.2
				c-3.6,3.2-7.9,4.7-12.4,4.7c-4.4,0-8.8-1.6-12.4-4.7L114.7,154.6C115.3,153.7,116,152.9,116.7,152.2z M109.9,343.4V179.8
				l93.3,82.3L110,344.4C109.9,344.1,109.9,343.7,109.9,343.4z M379,366.7H133c-4.2,0-8.1-1.1-11.4-3.1l98.4-86.7l9.2,8.1
				c7.7,6.8,17.3,10.2,26.8,10.2c9.6,0,19.2-3.4,26.9-10.2l9.2-8.1l98.4,86.7C387.1,365.6,383.2,366.7,379,366.7z M402.1,343.4
				c0,0.4,0,0.7,0,1l-93.3-82.2l93.3-82.3V343.4z"/>
		</g>
		<g>
			<path class="st2" d="M425.3,159.4c-1.5-7.8-5-15-9.7-20.9c-1-1.3-2.1-2.4-3.2-3.6c-8.5-8.6-20.4-14-33.4-14H133
				c-13,0-24.9,5.4-33.4,14c-1.1,1.2-2.2,2.3-3.2,3.6c-4.8,5.9-8.2,13.1-9.7,20.9c-0.6,3-0.9,6.1-0.9,9.3v174.7
				c0,6.7,1.4,13.1,3.9,19c2.3,5.6,5.8,10.6,9.9,14.8c1.1,1.1,2.1,2,3.3,3c8.2,6.8,18.7,11,30.1,11h246c11.4,0,22-4.1,30.1-11
				c1.1-0.9,2.2-1.9,3.3-3c4.2-4.2,7.6-9.2,10-14.8v0c2.5-5.8,3.9-12.2,3.9-18.9V168.6C426.2,165.5,425.9,162.4,425.3,159.4z
				 M116.7,152.2c4.2-4.3,9.9-6.8,16.3-6.8h246c6.4,0,12.1,2.6,16.3,6.8c0.7,0.8,1.4,1.6,2.1,2.4L268.4,268.2
				c-3.6,3.2-7.9,4.7-12.4,4.7c-4.4,0-8.8-1.6-12.4-4.7L114.7,154.6C115.3,153.7,116,152.9,116.7,152.2z M109.9,343.4V179.8
				l93.3,82.3L110,344.4C109.9,344.1,109.9,343.7,109.9,343.4z M379,366.7H133c-4.2,0-8.1-1.1-11.4-3.1l98.4-86.7l9.2,8.1
				c7.7,6.8,17.3,10.2,26.8,10.2c9.6,0,19.2-3.4,26.9-10.2l9.2-8.1l98.4,86.7C387.1,365.6,383.2,366.7,379,366.7z M402.1,343.4
				c0,0.4,0,0.7,0,1l-93.3-82.2l93.3-82.3V343.4z"/>
		</g>
	</g>
</g>
<g id="レイヤー_1">
</g>
</svg>
