<?xml version="1.0" encoding="utf-8"?>
<!-- Generator: Adobe Illustrator 24.0.3, SVG Export Plug-In . SVG Version: 6.00 Build 0)  -->
<svg version="1.1" id="レイヤー_1" xmlns="http://www.w3.org/2000/svg" xmlns:xlink="http://www.w3.org/1999/xlink" x="0px"
	 y="0px" viewBox="0 0 30 30" style="enable-background:new 0 0 30 30;" xml:space="preserve">
<style type="text/css">
	.st0{fill:#939393;}
</style>
<g>
	<path class="st0" d="M16.15,1.72l-1.14,1.19l-1.14-1.19c-1.61,0.69-2.78,2.75-2.78,4.6c0,1.27,1.22,4.41,2.3,6.93
		c0.61,1.42,2.62,1.42,3.22,0c1.08-2.52,2.3-5.67,2.3-6.93C18.92,4.46,17.75,2.41,16.15,1.72z"/>
	<path class="st0" d="M29.01,12.71L27.52,12l0.78-1.45c-1.15-1.31-3.47-1.79-5.23-1.22c-1.21,0.39-3.82,2.53-5.88,4.33
		c-1.16,1.02-0.54,2.93,1,3.06c2.73,0.25,6.1,0.44,7.31,0.04C27.25,16.2,28.85,14.45,29.01,12.71z"/>
	<path class="st0" d="M22.53,28.35l0.22-1.63l1.62,0.3c0.89-1.5,0.63-3.85-0.46-5.35c-0.75-1.03-3.58-2.85-5.94-4.26
		c-1.32-0.79-2.95,0.39-2.61,1.89c0.61,2.68,1.47,5.94,2.22,6.96C18.67,27.75,20.82,28.73,22.53,28.35z"/>
	<path class="st0" d="M5.66,27.01l1.62-0.3l0.22,1.63c1.71,0.38,3.86-0.59,4.95-2.09c0.75-1.03,1.6-4.29,2.21-6.96
		c0.34-1.5-1.28-2.69-2.61-1.89c-2.36,1.41-5.19,3.23-5.94,4.26C5.03,23.16,4.76,25.51,5.66,27.01z"/>
	<path class="st0" d="M1.71,10.56L2.5,12l-1.49,0.71c0.16,1.74,1.76,3.49,3.52,4.06c1.21,0.39,4.57,0.2,7.31-0.05
		c1.54-0.14,2.16-2.05,1-3.06c-2.07-1.8-4.68-3.94-5.89-4.33C5.18,8.76,2.86,9.24,1.71,10.56z"/>
	<path class="st0" d="M15.79,16.07c0,0.43-0.35,0.78-0.78,0.78c-0.43,0-0.78-0.35-0.78-0.78c0-0.43,0.35-0.78,0.78-0.78
		C15.44,15.28,15.79,15.64,15.79,16.07z"/>
</g>
</svg>
