<?xml version="1.0" encoding="utf-8"?>
<!-- Generator: Adobe Illustrator 24.1.0, SVG Export Plug-In . SVG Version: 6.00 Build 0)  -->
<svg version="1.1" xmlns="http://www.w3.org/2000/svg" xmlns:xlink="http://www.w3.org/1999/xlink" x="0px" y="0px"
	 viewBox="0 0 512 512" style="enable-background:new 0 0 512 512;" xml:space="preserve">
<style type="text/css">
	.st0{opacity:0.7;}
	.st1{fill:none;stroke:#FFFFFF;stroke-width:30;stroke-linecap:round;stroke-linejoin:round;}
	.st2{fill:#009D95;}
</style>
<g id="_x32_">
	<g>
		<g class="st0">
			<path class="st1" d="M203.3,160.6c8,0,14.5-6.5,14.5-14.4v-22.7c0-8-6.5-14.4-14.5-14.4c-8,0-14.5,6.5-14.5,14.4v22.7
				C188.8,154.1,195.3,160.6,203.3,160.6z"/>
			<path class="st1" d="M310.5,160.6c8,0,14.5-6.5,14.5-14.4v-22.7c0-8-6.5-14.4-14.5-14.4c-8,0-14.5,6.5-14.5,14.4v22.7
				C295.9,154.1,302.5,160.6,310.5,160.6z"/>
			<path class="st1" d="M360.8,129.6h-23.1v16.6c0,15-12.2,27.1-27.3,27.1c-15.1,0-27.3-12.2-27.3-27.1v-16.6h-52.6v16.6
				c0,15-12.3,27.1-27.3,27.1c-15.1,0-27.3-12.2-27.3-27.1v-16.6h-24.8c-22.5,0-40.8,18.1-40.8,40.5v192.4
				c0,22.4,18.3,40.5,40.8,40.5h209.7c22.5,0,40.8-18.1,40.8-40.5V170.1C401.7,147.7,383.4,129.6,360.8,129.6z M381.8,362.5
				c0,11.5-9.4,20.8-21,20.8H151.2c-11.6,0-21-9.3-21-20.8V195.7h251.6V362.5z"/>
			<rect x="209.1" y="328.6" class="st1" width="36.8" height="36.5"/>
			<rect x="209.1" y="272.1" class="st1" width="36.8" height="36.5"/>
			<rect x="152.1" y="328.6" class="st1" width="36.8" height="36.5"/>
			<rect x="152.1" y="272.1" class="st1" width="36.8" height="36.5"/>
			<rect x="323.1" y="215.5" class="st1" width="36.8" height="36.5"/>
			<rect x="266.1" y="215.5" class="st1" width="36.8" height="36.5"/>
			<polygon class="st1" points="310.4,277.4 299.5,268.9 279.5,294.4 267.7,285 259.1,295.7 281.8,313.8 			"/>
			<rect x="323.1" y="272.1" class="st1" width="36.8" height="36.5"/>
			<rect x="266.1" y="328.6" class="st1" width="36.8" height="36.5"/>
			<rect x="209.1" y="215.5" class="st1" width="36.8" height="36.5"/>
		</g>
		<g>
			<path class="st2" d="M203.3,160.6c8,0,14.5-6.5,14.5-14.4v-22.7c0-8-6.5-14.4-14.5-14.4c-8,0-14.5,6.5-14.5,14.4v22.7
				C188.8,154.1,195.3,160.6,203.3,160.6z"/>
			<path class="st2" d="M310.5,160.6c8,0,14.5-6.5,14.5-14.4v-22.7c0-8-6.5-14.4-14.5-14.4c-8,0-14.5,6.5-14.5,14.4v22.7
				C295.9,154.1,302.5,160.6,310.5,160.6z"/>
			<path class="st2" d="M360.8,129.6h-23.1v16.6c0,15-12.2,27.1-27.3,27.1c-15.1,0-27.3-12.2-27.3-27.1v-16.6h-52.6v16.6
				c0,15-12.3,27.1-27.3,27.1c-15.1,0-27.3-12.2-27.3-27.1v-16.6h-24.8c-22.5,0-40.8,18.1-40.8,40.5v192.4
				c0,22.4,18.3,40.5,40.8,40.5h209.7c22.5,0,40.8-18.1,40.8-40.5V170.1C401.7,147.7,383.4,129.6,360.8,129.6z M381.8,362.5
				c0,11.5-9.4,20.8-21,20.8H151.2c-11.6,0-21-9.3-21-20.8V195.7h251.6V362.5z"/>
			<rect x="209.1" y="328.6" class="st2" width="36.8" height="36.5"/>
			<rect x="209.1" y="272.1" class="st2" width="36.8" height="36.5"/>
			<rect x="152.1" y="328.6" class="st2" width="36.8" height="36.5"/>
			<rect x="152.1" y="272.1" class="st2" width="36.8" height="36.5"/>
			<rect x="323.1" y="215.5" class="st2" width="36.8" height="36.5"/>
			<rect x="266.1" y="215.5" class="st2" width="36.8" height="36.5"/>
			<polygon class="st2" points="310.4,277.4 299.5,268.9 279.5,294.4 267.7,285 259.1,295.7 281.8,313.8 			"/>
			<rect x="323.1" y="272.1" class="st2" width="36.8" height="36.5"/>
			<rect x="266.1" y="328.6" class="st2" width="36.8" height="36.5"/>
			<rect x="209.1" y="215.5" class="st2" width="36.8" height="36.5"/>
		</g>
	</g>
</g>
<g id="レイヤー_1">
</g>
</svg>
