<?xml version="1.0" encoding="utf-8"?>
<!-- Generator: Adobe Illustrator 24.1.0, SVG Export Plug-In . SVG Version: 6.00 Build 0)  -->
<svg version="1.1" xmlns="http://www.w3.org/2000/svg" xmlns:xlink="http://www.w3.org/1999/xlink" x="0px" y="0px"
	 viewBox="0 0 512 512" style="enable-background:new 0 0 512 512;" xml:space="preserve">
<style type="text/css">
	.st0{opacity:0.7;}
	.st1{fill:none;stroke:#FFFFFF;stroke-width:30;}
	.st2{fill:#009D95;}
</style>
<g id="_x32_">
	<g>
		<g class="st0">
			<path class="st1" d="M231,130l-6.5-14.3c-6-13-21.3-18.9-34.3-13.1c-13,5.8-18.7,21.1-12.7,34.2l14.6,32.1
				C192.1,168.8,231,130,231,130z"/>
			<path class="st1" d="M362.3,276.3c-0.5,0.3-0.9,0.5-1.4,0.8L234.7,403.2c-3.5,3.5-8.2,5.3-12.8,5.2c-4.6,0-9.3-1.8-12.8-5.4
				l-94.2-94.2c1.2-0.3,2.4-0.6,3.6-1.2c2.2-1,4.2-2.4,5.8-4c2.8-2.8,4.6-6.4,5.4-10.2c0.7-3.9,0.3-7.9-1.5-11.8l-9.1-19.9l0,0
				c-1-2.2-2.4-4.2-4-5.8c-2.8-2.8-6.4-4.7-10.3-5.5c-3.9-0.8-7.9-0.4-11.8,1.3c-2.2,1-4.2,2.4-5.8,4c-2.8,2.8-4.7,6.4-5.4,10.2
				c-0.7,3.9-0.3,7.9,1.5,11.8l9.1,19.9c1,2.2,2.4,4.2,4,5.8c2.8,2.8,6.4,4.7,10.3,5.5c0.7,0.1,1.4,0.2,2.1,0.2
				c2,21.2,10.6,48.8,37,76.5c55.1,57.7,111.4,31.4,164.9-5.8c0,0,106.3-67.4,112.2-70.6C452.4,293,418.4,245.2,362.3,276.3z"/>
			<path class="st1" d="M206.1,198.8l95.8-95.8l94.6,94.6L243.2,350.8l-81-81c-1.8,1.4-3.8,2.7-6,3.7c-5.6,2.5-11.6,3.1-17.2,2
				c-1.5-0.3-2.9-0.7-4.3-1.2l1.7,3.8c2.6,5.6,3.2,11.6,2.2,17.2c-0.8,4.6-2.8,8.8-5.7,12.5l85.8,85.8c0.9,0.9,2,1.3,3.2,1.3
				c1.2,0,2.3-0.4,3.2-1.3l201.2-201.2c0.9-0.9,1.3-2,1.3-3.2c0-1.2-0.4-2.3-1.3-3.2L313.4,73.2c-0.9-0.9-2-1.3-3.2-1.3
				c-1.2,0-2.3,0.4-3.2,1.3L198.8,181.4l5.3,11.5C205,194.8,205.6,196.8,206.1,198.8z M172.4,327c-3.1-3.1-3.1-8.1-0.1-11.2
				c3.1-3.1,8.1-3.1,11.2,0.1c3.1,3.1,3.1,8.1,0.1,11.2C180.6,330.1,175.5,330.1,172.4,327z"/>
			<path class="st1" d="M126.3,255.2c1,2.2,2.4,4.2,4,5.8c2.8,2.8,6.4,4.7,10.3,5.5c3.9,0.8,7.9,0.4,11.8-1.3c2.2-1,4.2-2.4,5.8-4
				c2.8-2.8,4.7-6.4,5.4-10.2c0.7-3.9,0.3-7.9-1.5-11.8l-9.1-19.9c-1-2.2-2.4-4.2-4-5.8c-2.8-2.8-6.4-4.7-10.3-5.5
				c-3.9-0.8-7.9-0.4-11.8,1.4c-2.2,1-4.2,2.4-5.8,4c-2.8,2.8-4.6,6.4-5.4,10.2c-0.7,3.9-0.3,7.9,1.5,11.8L126.3,255.2z"/>
			<path class="st1" d="M160.1,212.7c1,2.3,2.4,4.2,4,5.8c2.8,2.8,6.4,4.7,10.3,5.5c3.9,0.8,7.9,0.4,11.8-1.3c2.2-1,4.2-2.4,5.8-4
				c2.8-2.8,4.7-6.4,5.4-10.2c0.7-3.9,0.3-7.9-1.5-11.8l-9.1-19.9c-1-2.2-2.4-4.2-4-5.8c-2.8-2.8-6.4-4.7-10.3-5.5
				c-3.8-0.8-7.9-0.4-11.8,1.3c-2.2,1-4.2,2.4-5.8,4c-2.8,2.8-4.6,6.4-5.4,10.2c-0.7,3.8-0.3,7.9,1.5,11.8L160.1,212.7z"/>
			<path class="st1" d="M273.7,210.4l8.4,1.9c2.7,0.6,5.3-1.1,5.9-3.7l3.9-18.4c0.6-2.7-1.1-5.3-3.8-5.9c-0.1,0-1-0.2-11.1-2.5
				c-11.8-2.6-27.5,20.9-33.1,47c-5.6,26.2-0.8,54.2,11,56.8c10.1,2.3,11,2.5,11.1,2.5c2.7,0.6,5.3-1.1,5.9-3.8l3.9-18.4
				c0.6-2.7-1.1-5.3-3.8-5.9l-8.4-1.9c-2.4-0.5-4.1-2.8-3.9-5.3c0,0,0-6.9,2.8-20c2.8-13,5.6-19.4,5.6-19.4
				C268.8,211.2,271.3,209.9,273.7,210.4z"/>
		</g>
		<g>
			<path class="st2" d="M231,130l-6.5-14.3c-6-13-21.3-18.9-34.3-13.1c-13,5.8-18.7,21.1-12.7,34.2l14.6,32.1
				C192.1,168.8,231,130,231,130z"/>
			<path class="st2" d="M362.3,276.3c-0.5,0.3-0.9,0.5-1.4,0.8L234.7,403.2c-3.5,3.5-8.2,5.3-12.8,5.2c-4.6,0-9.3-1.8-12.8-5.4
				l-94.2-94.2c1.2-0.3,2.4-0.6,3.6-1.2c2.2-1,4.2-2.4,5.8-4c2.8-2.8,4.6-6.4,5.4-10.2c0.7-3.9,0.3-7.9-1.5-11.8l-9.1-19.9l0,0
				c-1-2.2-2.4-4.2-4-5.8c-2.8-2.8-6.4-4.7-10.3-5.5c-3.9-0.8-7.9-0.4-11.8,1.3c-2.2,1-4.2,2.4-5.8,4c-2.8,2.8-4.7,6.4-5.4,10.2
				c-0.7,3.9-0.3,7.9,1.5,11.8l9.1,19.9c1,2.2,2.4,4.2,4,5.8c2.8,2.8,6.4,4.7,10.3,5.5c0.7,0.1,1.4,0.2,2.1,0.2
				c2,21.2,10.6,48.8,37,76.5c55.1,57.7,111.4,31.4,164.9-5.8c0,0,106.3-67.4,112.2-70.6C452.4,293,418.4,245.2,362.3,276.3z"/>
			<path class="st2" d="M206.1,198.8l95.8-95.8l94.6,94.6L243.2,350.8l-81-81c-1.8,1.4-3.8,2.7-6,3.7c-5.6,2.5-11.6,3.1-17.2,2
				c-1.5-0.3-2.9-0.7-4.3-1.2l1.7,3.8c2.6,5.6,3.2,11.6,2.2,17.2c-0.8,4.6-2.8,8.8-5.7,12.5l85.8,85.8c0.9,0.9,2,1.3,3.2,1.3
				c1.2,0,2.3-0.4,3.2-1.3l201.2-201.2c0.9-0.9,1.3-2,1.3-3.2c0-1.2-0.4-2.3-1.3-3.2L313.4,73.2c-0.9-0.9-2-1.3-3.2-1.3
				c-1.2,0-2.3,0.4-3.2,1.3L198.8,181.4l5.3,11.5C205,194.8,205.6,196.8,206.1,198.8z M172.4,327c-3.1-3.1-3.1-8.1-0.1-11.2
				c3.1-3.1,8.1-3.1,11.2,0.1c3.1,3.1,3.1,8.1,0.1,11.2C180.6,330.1,175.5,330.1,172.4,327z"/>
			<path class="st2" d="M126.3,255.2c1,2.2,2.4,4.2,4,5.8c2.8,2.8,6.4,4.7,10.3,5.5c3.9,0.8,7.9,0.4,11.8-1.3c2.2-1,4.2-2.4,5.8-4
				c2.8-2.8,4.7-6.4,5.4-10.2c0.7-3.9,0.3-7.9-1.5-11.8l-9.1-19.9c-1-2.2-2.4-4.2-4-5.8c-2.8-2.8-6.4-4.7-10.3-5.5
				c-3.9-0.8-7.9-0.4-11.8,1.4c-2.2,1-4.2,2.4-5.8,4c-2.8,2.8-4.6,6.4-5.4,10.2c-0.7,3.9-0.3,7.9,1.5,11.8L126.3,255.2z"/>
			<path class="st2" d="M160.1,212.7c1,2.3,2.4,4.2,4,5.8c2.8,2.8,6.4,4.7,10.3,5.5c3.9,0.8,7.9,0.4,11.8-1.3c2.2-1,4.2-2.4,5.8-4
				c2.8-2.8,4.7-6.4,5.4-10.2c0.7-3.9,0.3-7.9-1.5-11.8l-9.1-19.9c-1-2.2-2.4-4.2-4-5.8c-2.8-2.8-6.4-4.7-10.3-5.5
				c-3.8-0.8-7.9-0.4-11.8,1.3c-2.2,1-4.2,2.4-5.8,4c-2.8,2.8-4.6,6.4-5.4,10.2c-0.7,3.8-0.3,7.9,1.5,11.8L160.1,212.7z"/>
			<path class="st2" d="M273.7,210.4l8.4,1.9c2.7,0.6,5.3-1.1,5.9-3.7l3.9-18.4c0.6-2.7-1.1-5.3-3.8-5.9c-0.1,0-1-0.2-11.1-2.5
				c-11.8-2.6-27.5,20.9-33.1,47c-5.6,26.2-0.8,54.2,11,56.8c10.1,2.3,11,2.5,11.1,2.5c2.7,0.6,5.3-1.1,5.9-3.8l3.9-18.4
				c0.6-2.7-1.1-5.3-3.8-5.9l-8.4-1.9c-2.4-0.5-4.1-2.8-3.9-5.3c0,0,0-6.9,2.8-20c2.8-13,5.6-19.4,5.6-19.4
				C268.8,211.2,271.3,209.9,273.7,210.4z"/>
		</g>
	</g>
</g>
<g id="レイヤー_1">
</g>
</svg>
