<?xml version="1.0" encoding="utf-8"?>
<!-- Generator: Adobe Illustrator 12.0.0, SVG Export Plug-In . SVG Version: 6.00 Build 51448)  -->
<!DOCTYPE svg PUBLIC "-//W3C//DTD SVG 1.1//EN" "http://www.w3.org/Graphics/SVG/1.1/DTD/svg11.dtd" [
	<!ENTITY ns_svg "http://www.w3.org/2000/svg">
	<!ENTITY ns_xlink "http://www.w3.org/1999/xlink">
]>
<svg  version="1.1" id="レイヤー_1" xmlns="&ns_svg;" xmlns:xlink="&ns_xlink;" width="150" height="30"
	 viewBox="0.658 -0.751 150 30" overflow="visible" enable-background="new 0.658 -0.751 150 30" xml:space="preserve">
<g>
	<g>
		<g>
			<path fill="#FFFFFF" d="M9.001,9.659c0-3.168-0.107-5.074-0.242-6.283C8.733,2.92,7.874,2.786,7.122,2.759
				c-0.161,0-0.135-0.591,0-0.591c0.939,0.054,1.879,0.054,2.899,0.027C9.941,3.028,9.699,6.894,9.699,9.793v2.416
				c0,2.523,0.269,6.578,0.483,8.403c-0.993-0.026-1.96-0.026-2.766,0.025c-0.134,0.027-0.161-0.536,0-0.536
				c0.618-0.054,1.316-0.134,1.37-0.672c0.188-1.208,0.215-3.596,0.215-7.06V9.659z M11.471,10.061c0-3.249-0.295-6.765-0.403-7.866
				c2.9,0.053,6.417,0,8.698-0.027c0.242,0,0.376,0.081,0.376,0.295c0.107,0.591,0.188,1.906,0.188,2.578
				c0,0.188-0.537,0.188-0.564,0.027c-0.375-1.719-0.778-2.202-3.194-2.202L13.403,2.84c-0.242,0-0.349,0.134-0.349,0.43
				l-0.107,7.437l3.92-0.054c1.45-0.026,2.067-0.134,2.523-0.134c0.242,0-0.027,0.967-0.349,0.967c-0.322,0-0.967-0.134-3.141-0.134
				l-2.954-0.027v3.034c0,1.315,0.134,4.296,0.214,4.967c0.054,0.484,0.162,0.646,0.537,0.646l3.195-0.027
				c2.577,0,2.926-0.589,3.437-2.282c0.053-0.215,0.59-0.188,0.59,0c0,0.511-0.161,1.907-0.295,2.712
				c-0.027,0.189-0.134,0.295-0.375,0.295c-2.067,0-6.148-0.079-9.102-0.054c0.107-1.208,0.322-5.047,0.322-8.001L11.471,10.061
				L11.471,10.061z"/>
		</g>
		<g>
			<path fill="#FFFFFF" d="M27.045,20.612c-0.188,0-0.295-0.107-0.376-0.35c-0.51-1.718-1.182-3.73-2.228-6.523
				c-0.967-2.55-1.772-4.564-2.47-6.014c-0.161-0.349-0.618-0.429-1.342-0.483c-0.161,0-0.134-0.563,0-0.563
				c0.698,0.053,1.423,0.053,2.282,0.026c0.456,1.987,1.181,4.269,2.174,6.874c0.967,2.738,1.879,4.939,2.873,7.007L27.045,20.612z
				 M29.085,20.586c-0.564-1.88-1.343-4.564-2.309-7.249c-0.939-2.658-1.772-4.859-2.658-6.632c1.289,0.027,2.685,0.027,4.054-0.026
				c0.161,0,0.161,0.563,0,0.563c-0.913,0.027-1.611,0.188-1.53,0.564c0.242,1.208,0.698,2.792,1.503,5.289
				c0.859,2.471,1.53,4.081,2.175,5.853h0.161c0.644-1.692,1.288-3.518,1.986-5.584c0.645-1.96,1.182-3.732,1.665-5.611
				c0.081-0.349-0.457-0.51-1.342-0.51c-0.134,0-0.107-0.563,0-0.563c1.315,0.053,2.685,0.081,3.974,0c0.161,0,0.161,0.563,0,0.563
				C36.226,7.27,35.555,7.323,35.394,7.7c-0.886,2.013-1.611,3.865-2.309,5.879c-0.725,2.12-1.584,4.564-2.255,6.765
				c-0.081,0.161-0.162,0.242-0.322,0.242H29.085z"/>
		</g>
		<g>
			<path fill="#FFFFFF" d="M36.262,13.632c0-4,2.094-6.362,4.134-6.9c0.188-0.053,0.483,0.027,0.322,0.108
				c-1.879,0.725-3.41,3.061-3.41,6.792c0,3.759,1.906,6.121,3.813,6.819c0.134,0.054-0.188,0.215-0.349,0.135
				C38.597,19.995,36.262,17.633,36.262,13.632z M40.959,13.552c0,4.215,1.718,6.604,4.859,6.604c2.578,0,3.866-1.557,4.243-2.927
				c0.053-0.188,0.537-0.188,0.563-0.026c0.027,0.483,0.027,1.397-0.215,1.88c-0.269,0.644-1.262,1.664-4.698,1.664
				c-4.537,0-6.578-2.846-6.578-7.142c0-4.081,1.718-7.035,4.859-7.035c2.953,0,4,2.926,4.054,6.98L40.959,13.552L40.959,13.552z
				 M46.436,12.988c0.376,0,0.51-0.134,0.51-0.456c-0.027-2.9-0.751-5.316-2.738-5.316c-2.255,0-3.195,2.443-3.249,5.772H46.436z
				 M49.631,13.605c0.215-3.329-0.672-5.799-2.551-6.712c-0.161-0.107,0.134-0.188,0.269-0.161c2.577,0.618,4.027,3.249,4.027,6.417
				c0,0.322-0.134,0.456-0.322,0.456H49.631z"/>
		</g>
		<g>
			<path fill="#FFFFFF" d="M53.889,13.015c0-2.255-0.135-4.51-0.242-5.155c-0.107-0.537-0.939-0.59-1.583-0.645
				c-0.134,0-0.107-0.537,0-0.537c0.939,0.053,1.853,0.053,2.765,0.026c-0.134,1.665-0.322,3.866-0.322,6.336v1.369
				c0,1.853,0.188,4.456,0.403,6.201c-0.886-0.026-1.745-0.026-2.604,0.025c-0.107,0-0.134-0.536,0-0.563
				c0.698,0,1.369-0.216,1.422-0.646c0.162-0.992,0.162-2.952,0.162-5.154V13.015z M56.278,13.23c0-3.034-0.242-5.074-0.376-6.498
				l1.343-0.027c0.241,0,0.402,0.135,0.43,0.403c0,0.564-0.107,2.39-0.107,3.518c0.43-2.068,2.121-4.054,4.483-4.054
				c1.101,0,1.664,0.483,1.825,0.993c0.134,0.456,0.054,1.101-0.026,1.45c-0.027,0.107-0.483,0.134-0.51,0
				c-0.242-0.671-0.805-1.262-1.745-1.262c-1.745,0-3.168,1.611-3.651,3.383c-0.188,0.618-0.295,1.718-0.295,2.551v1.342
				c0,1.665,0.135,3.732,0.242,4.376c0.08,0.455,0.778,0.618,1.798,0.698c0.188,0,0.161,0.537,0,0.537
				c-1.208-0.054-2.443-0.054-3.758-0.026c0.134-1.289,0.349-3.382,0.349-5.959V13.23z"/>
		</g>
		<g>
			<path fill="#FFFFFF" d="M64.348,22.869c0-1.666,1.342-2.874,2.899-3.249c0.188-0.055,0.402,0.08,0.269,0.133
				c-1.208,0.51-2.121,1.638-2.121,3.033c0,1.584,0.832,2.713,2.469,3.249c0.135,0.055-0.027,0.189-0.215,0.135
				C65.609,25.848,64.348,24.586,64.348,22.869z M64.832,11.458c0-2.443,1.692-4.35,3.571-4.726c0.188-0.053,0.43,0.054,0.269,0.135
				c-1.611,0.618-2.792,2.282-2.792,4.591c0,2.094,0.94,3.49,2.229,4.188c0.107,0.053-0.054,0.188-0.295,0.107
				C66.255,15.298,64.832,13.74,64.832,11.458z M72.081,26.331c-2.953,0-4.859-1.397-4.859-3.598c0-1.664,1.369-2.872,2.739-3.624
				c-0.886-0.269-1.611-0.698-1.611-1.397c0-0.698,0.725-1.287,1.664-1.717c-0.805-0.351-2.309-1.746-2.309-4.539
				c0-2.792,1.691-4.886,4.322-4.886c2.658,0,4.349,2.094,4.349,4.886c0,2.819-1.691,4.939-4.349,4.939
				c-0.43,0-0.939-0.079-1.477-0.16c-0.752,0.403-1.208,0.778-1.208,1.316c0,0.563,0.537,1.071,3.624,1.476
				c3.222,0.455,4.565,1.478,4.565,3.437c0,2.281-2.042,3.866-5.424,3.866L72.081,26.331L72.081,26.331z M72.483,25.714
				c2.577,0,4-1.288,4-3.167c0-1.638-1.316-2.389-3.598-2.818c-1.074-0.161-1.611-0.27-2.229-0.404
				c-1.02,0.671-1.665,1.879-1.665,3.355c0,1.907,1.396,3.034,3.463,3.034H72.483z M72.403,15.754c1.879,0,2.926-1.96,2.926-4.296
				c0-2.309-1.047-4.269-2.953-4.269s-2.9,1.959-2.9,4.269c0,2.336,0.886,4.296,2.9,4.296H72.403z M75.652,15.941
				c1.53-0.698,2.549-2.309,2.549-4.483c0-2.309-1.182-3.973-2.63-4.564c-0.108-0.026-0.027-0.161,0.188-0.161
				c2.282-0.027,3.893-0.134,5.155-0.161c0.161,0,0.214,0.134,0.214,0.269c0,0.242-0.214,0.671-0.43,0.671
				c-0.67,0-2.2-0.241-3.141-0.295c1.154,0.591,2.31,1.826,2.31,4.242c0,2.336-1.505,4.16-4.002,4.645
				C75.704,16.157,75.516,16.021,75.652,15.941z M76.752,26.035c1.61-0.536,2.605-1.958,2.605-3.544c0-1.343-0.727-2.604-2.257-3.14
				c-0.16-0.028,0.08-0.161,0.27-0.136c2.522,0.269,3.677,1.638,3.677,3.248c0,1.906-1.396,3.329-4.025,3.73
				C76.833,26.251,76.563,26.115,76.752,26.035z"/>
		</g>
		<g>
			<path fill="#FFFFFF" d="M83.96,13.015c0-2.255-0.134-4.51-0.241-5.155c-0.106-0.537-0.939-0.59-1.585-0.645
				c-0.133,0-0.106-0.537,0-0.537c0.94,0.053,1.854,0.053,2.768,0.026c-0.136,1.665-0.323,3.866-0.323,6.336v1.369
				c0,1.853,0.188,4.456,0.403,6.201c-0.886-0.026-1.745-0.026-2.604,0.025c-0.107,0-0.134-0.536,0-0.563
				c0.698,0,1.369-0.216,1.424-0.646c0.16-0.992,0.16-2.952,0.16-5.154L83.96,13.015L83.96,13.015z M86.349,13.23
				c0-3.034-0.242-5.074-0.376-6.498l1.343-0.027c0.241,0,0.402,0.135,0.429,0.403c0,0.564-0.107,2.39-0.107,3.518
				c0.43-2.068,2.122-4.054,4.485-4.054c1.1,0,1.664,0.483,1.826,0.993c0.133,0.456,0.053,1.101-0.027,1.45
				c-0.026,0.107-0.482,0.134-0.51,0c-0.241-0.671-0.805-1.262-1.745-1.262c-1.744,0-3.168,1.611-3.65,3.383
				c-0.189,0.618-0.296,1.718-0.296,2.551v1.342c0,1.665,0.135,3.732,0.242,4.376c0.08,0.455,0.778,0.618,1.799,0.698
				c0.188,0,0.161,0.537,0,0.537c-1.208-0.054-2.443-0.054-3.761-0.026c0.137-1.289,0.351-3.382,0.351-5.959V13.23H86.349z"/>
		</g>
		<g>
			<path fill="#FFFFFF" d="M94.59,13.632c0-4,2.093-6.362,4.134-6.9c0.188-0.053,0.483,0.027,0.323,0.108
				c-1.88,0.725-3.41,3.061-3.41,6.792c0,3.759,1.905,6.121,3.812,6.819c0.135,0.054-0.188,0.215-0.349,0.135
				C96.925,19.995,94.59,17.633,94.59,13.632z M99.287,13.552c0,4.215,1.718,6.604,4.86,6.604c2.577,0,3.866-1.557,4.241-2.927
				c0.055-0.188,0.536-0.188,0.564-0.026c0.025,0.483,0.025,1.397-0.216,1.88c-0.269,0.644-1.263,1.664-4.699,1.664
				c-4.536,0-6.576-2.846-6.576-7.142c0-4.081,1.718-7.035,4.858-7.035c2.953,0,4.001,2.926,4.056,6.98L99.287,13.552L99.287,13.552
				z M104.764,12.988c0.374,0,0.509-0.134,0.509-0.456c-0.027-2.9-0.753-5.316-2.737-5.316c-2.256,0-3.196,2.443-3.249,5.772
				H104.764z M107.959,13.605c0.214-3.329-0.672-5.799-2.552-6.712c-0.161-0.107,0.136-0.188,0.269-0.161
				c2.577,0.618,4.027,3.249,4.027,6.417c0,0.322-0.134,0.456-0.322,0.456H107.959z"/>
		</g>
		<g>
			<path fill="#FFFFFF" d="M111.103,13.632c0-4,2.093-6.362,4.134-6.9c0.188-0.053,0.484,0.027,0.323,0.108
				c-1.88,0.725-3.411,3.061-3.411,6.792c0,3.759,1.906,6.121,3.812,6.819c0.136,0.054-0.188,0.215-0.349,0.135
				C113.438,19.995,111.103,17.633,111.103,13.632z M115.802,13.552c0,4.215,1.719,6.604,4.858,6.604
				c2.578,0,3.866-1.557,4.241-2.927c0.055-0.188,0.538-0.188,0.565-0.026c0.025,0.483,0.025,1.397-0.216,1.88
				c-0.27,0.644-1.262,1.664-4.697,1.664c-4.539,0-6.579-2.846-6.579-7.142c0-4.081,1.719-7.035,4.86-7.035
				c2.952,0,4,2.926,4.054,6.98L115.802,13.552L115.802,13.552z M121.277,12.988c0.377,0,0.511-0.134,0.511-0.456
				c-0.026-2.9-0.753-5.316-2.739-5.316c-2.255,0-3.194,2.443-3.247,5.772H121.277z M124.472,13.605
				c0.215-3.329-0.67-5.799-2.551-6.712c-0.16-0.107,0.133-0.188,0.27-0.161c2.576,0.618,4.026,3.249,4.026,6.417
				c0,0.322-0.135,0.456-0.323,0.456H124.472z"/>
		</g>
		<g>
			<path fill="#FFFFFF" d="M128.729,13.257c0-2.47-0.161-4.779-0.24-5.37c-0.08-0.537-0.969-0.59-1.585-0.645
				c-0.133-0.027-0.106-0.563,0-0.563c0.939,0.053,1.854,0.053,2.766,0.026c-0.107,1.45-0.321,3.839-0.321,6.685v1.021
				c0,1.906,0.24,4.482,0.428,6.201c-0.886-0.026-1.797-0.026-2.686,0.025c-0.107,0-0.133-0.536,0-0.563
				c0.646-0.055,1.425-0.216,1.478-0.591c0.135-0.992,0.161-2.818,0.161-4.886V13.257z M131.119,13.283
				c0-3.06-0.268-5.101-0.375-6.551h1.18c0.352-0.027,0.485,0.081,0.511,0.323c0,0.59-0.053,1.96-0.025,2.792
				c0.455-1.826,1.854-3.275,3.811-3.275c2.283,0,3.169,1.611,3.169,3.919c0,1.315-0.053,2.551-0.053,4.054v0.966
				c0,2.522,0.269,4.322,0.375,5.101c-0.805-0.026-1.583-0.026-2.335,0.025c-0.108,0-0.137-0.536,0-0.563
				c0.616-0.055,1.1-0.188,1.152-0.537c0.161-0.859,0.188-2.123,0.188-4.242v-1.852c0-4.188-0.644-6.067-2.656-6.067
				c-1.692,0-2.793,1.343-3.355,3.141c-0.162,0.725-0.216,1.853-0.216,3.061v1.342c0,2.846,0.106,3.84,0.241,4.592
				c0.08,0.43,0.537,0.537,1.153,0.59c0.161,0,0.136,0.563,0,0.537c-0.968-0.054-2.04-0.054-3.115-0.026
				c0.108-1.073,0.35-3.248,0.35-5.959L131.119,13.283L131.119,13.283z M141.106,14.196c0-4.913-0.536-6.631-1.96-7.356
				c-0.107-0.054,0.055-0.161,0.242-0.135c2.282,0.295,3.274,1.88,3.274,4.323c0,1.477-0.188,3.061-0.188,4.51
				c0,1.262,0.026,2.899,0.269,3.92c0.107,0.484,0.833,0.564,1.45,0.617c0.161,0.027,0.135,0.564,0,0.564
				c-1.128-0.054-2.255-0.054-3.356-0.026c0.162-2.067,0.269-3.705,0.269-5.154V14.196L141.106,14.196z"/>
		</g>
	</g>
</g>
<g>
	<g>
		<g>
			<path fill="#B4B4B4" d="M11.105-56.53c0-3.068-0.104-4.914-0.234-6.084c-0.026-0.442-0.858-0.572-1.586-0.598
				c-0.156,0-0.13-0.572,0-0.572c0.91,0.052,1.82,0.052,2.808,0.026c-0.078,0.806-0.312,4.55-0.312,7.358v2.34
				c0,2.444,0.26,6.37,0.468,8.138c-0.962-0.026-1.898-0.026-2.678,0.026c-0.13,0.026-0.156-0.52,0-0.52
				c0.598-0.052,1.274-0.13,1.326-0.65c0.182-1.17,0.208-3.484,0.208-6.838V-56.53z M13.497-56.14c0-3.146-0.286-6.552-0.39-7.618
				c2.808,0.052,6.214,0,8.424-0.026c0.234,0,0.364,0.078,0.364,0.286c0.104,0.572,0.182,1.846,0.182,2.496
				c0,0.182-0.52,0.182-0.546,0.026c-0.364-1.664-0.754-2.132-3.094-2.132l-3.068-0.026c-0.234,0-0.338,0.13-0.338,0.416
				l-0.104,7.202l3.796-0.052c1.404-0.026,2.002-0.13,2.444-0.13c0.234,0-0.026,0.936-0.338,0.936s-0.936-0.13-3.042-0.13
				l-2.86-0.026v2.938c0,1.274,0.13,4.16,0.208,4.81c0.052,0.468,0.156,0.624,0.52,0.624l3.094-0.026
				c2.496,0,2.834-0.572,3.328-2.21c0.052-0.208,0.572-0.182,0.572,0c0,0.494-0.156,1.846-0.286,2.626
				c-0.026,0.182-0.13,0.286-0.364,0.286c-2.002,0-5.954-0.078-8.814-0.052c0.104-1.17,0.312-4.888,0.312-7.748V-56.14z"/>
		</g>
		<g>
			<path fill="#B4B4B4" d="M28.579-45.922c-0.182,0-0.286-0.104-0.364-0.338c-0.494-1.664-1.144-3.614-2.158-6.318
				c-0.936-2.47-1.716-4.42-2.392-5.824c-0.156-0.338-0.598-0.416-1.3-0.468c-0.156,0-0.13-0.546,0-0.546
				c0.676,0.052,1.378,0.052,2.21,0.026c0.442,1.924,1.144,4.134,2.106,6.656c0.936,2.652,1.82,4.784,2.782,6.786L28.579-45.922z
				 M30.555-45.948c-0.546-1.82-1.3-4.42-2.236-7.02c-0.91-2.574-1.716-4.706-2.574-6.422c1.248,0.026,2.6,0.026,3.926-0.026
				c0.156,0,0.156,0.546,0,0.546c-0.884,0.026-1.56,0.182-1.482,0.546c0.234,1.17,0.676,2.704,1.456,5.122
				c0.832,2.392,1.482,3.952,2.106,5.668h0.156c0.624-1.638,1.248-3.406,1.924-5.408c0.624-1.898,1.144-3.614,1.612-5.434
				c0.078-0.338-0.442-0.494-1.3-0.494c-0.13,0-0.104-0.546,0-0.546c1.274,0.052,2.6,0.078,3.848,0c0.156,0,0.156,0.546,0,0.546
				c-0.52,0.026-1.17,0.078-1.326,0.442c-0.858,1.95-1.56,3.744-2.236,5.694c-0.702,2.054-1.534,4.42-2.184,6.552
				c-0.078,0.156-0.156,0.234-0.312,0.234H30.555z"/>
		</g>
		<g>
			<path fill="#B4B4B4" d="M37.505-52.682c0-3.874,2.028-6.162,4.004-6.682c0.182-0.052,0.468,0.026,0.312,0.104
				c-1.82,0.702-3.302,2.964-3.302,6.578c0,3.64,1.846,5.928,3.692,6.604c0.13,0.052-0.182,0.208-0.338,0.13
				C39.767-46.52,37.505-48.808,37.505-52.682z M42.054-52.76c0,4.082,1.664,6.396,4.706,6.396c2.496,0,3.744-1.508,4.108-2.834
				c0.052-0.182,0.52-0.182,0.546-0.026c0.026,0.468,0.026,1.352-0.208,1.82c-0.26,0.624-1.222,1.612-4.55,1.612
				c-4.394,0-6.37-2.756-6.37-6.916c0-3.952,1.664-6.813,4.706-6.813c2.86,0,3.874,2.834,3.926,6.76L42.054-52.76L42.054-52.76z
				 M47.359-53.306c0.364,0,0.494-0.13,0.494-0.442c-0.026-2.808-0.728-5.148-2.652-5.148c-2.184,0-3.094,2.366-3.146,5.59H47.359z
				 M50.452-52.708c0.208-3.224-0.65-5.616-2.47-6.5c-0.156-0.104,0.13-0.182,0.26-0.156c2.496,0.598,3.9,3.146,3.9,6.214
				c0,0.312-0.13,0.442-0.312,0.442H50.452z"/>
		</g>
		<g>
			<path fill="#B4B4B4" d="M54.576-53.28c0-2.184-0.13-4.368-0.234-4.992c-0.104-0.52-0.91-0.572-1.534-0.624
				c-0.13,0-0.104-0.52,0-0.52c0.91,0.052,1.794,0.052,2.678,0.026c-0.13,1.612-0.312,3.744-0.312,6.136v1.326
				c0,1.794,0.182,4.316,0.39,6.006c-0.858-0.026-1.69-0.026-2.522,0.026c-0.104,0-0.13-0.52,0-0.546
				c0.676,0,1.326-0.208,1.378-0.624c0.156-0.962,0.156-2.86,0.156-4.992V-53.28z M56.89-53.072c0-2.938-0.234-4.914-0.364-6.292
				l1.3-0.026c0.234,0,0.39,0.13,0.416,0.39c0,0.546-0.104,2.314-0.104,3.406c0.416-2.002,2.054-3.926,4.342-3.926
				c1.066,0,1.612,0.468,1.768,0.962c0.13,0.442,0.052,1.066-0.026,1.404c-0.026,0.104-0.468,0.13-0.494,0
				c-0.234-0.65-0.78-1.222-1.69-1.222c-1.69,0-3.068,1.56-3.536,3.276c-0.182,0.598-0.286,1.664-0.286,2.47v1.3
				c0,1.612,0.13,3.614,0.234,4.238c0.078,0.442,0.754,0.598,1.742,0.676c0.182,0,0.156,0.52,0,0.52
				c-1.17-0.052-2.366-0.052-3.64-0.026c0.13-1.248,0.338-3.276,0.338-5.772V-53.072z"/>
		</g>
		<g>
			<path fill="#B4B4B4" d="M64.705-43.738c0-1.612,1.3-2.782,2.808-3.146c0.182-0.052,0.39,0.078,0.26,0.13
				c-1.17,0.494-2.054,1.586-2.054,2.938c0,1.534,0.806,2.626,2.392,3.146c0.13,0.052-0.026,0.182-0.208,0.13
				C65.927-40.852,64.705-42.074,64.705-43.738z M65.174-54.788c0-2.366,1.638-4.212,3.458-4.576c0.182-0.052,0.416,0.052,0.26,0.13
				c-1.56,0.598-2.704,2.21-2.704,4.446c0,2.028,0.91,3.38,2.158,4.056c0.104,0.052-0.052,0.182-0.286,0.104
				C66.552-51.07,65.174-52.578,65.174-54.788z M72.194-40.384c-2.86,0-4.706-1.352-4.706-3.484c0-1.612,1.326-2.782,2.652-3.51
				c-0.858-0.26-1.56-0.676-1.56-1.352c0-0.676,0.702-1.248,1.612-1.664c-0.78-0.338-2.236-1.69-2.236-4.394
				s1.638-4.732,4.186-4.732c2.574,0,4.211,2.028,4.211,4.732c0,2.73-1.638,4.784-4.211,4.784c-0.416,0-0.91-0.078-1.43-0.156
				c-0.728,0.39-1.17,0.754-1.17,1.274c0,0.546,0.52,1.04,3.51,1.43c3.12,0.442,4.421,1.43,4.421,3.328
				c0,2.21-1.977,3.744-5.252,3.744H72.194L72.194-40.384z M72.583-40.982c2.496,0,3.874-1.248,3.874-3.068
				c0-1.586-1.274-2.314-3.484-2.73c-1.04-0.156-1.56-0.26-2.158-0.39c-0.988,0.65-1.612,1.82-1.612,3.25
				c0,1.846,1.352,2.938,3.354,2.938H72.583z M72.506-50.628c1.82,0,2.834-1.898,2.834-4.16c0-2.236-1.014-4.134-2.86-4.134
				s-2.808,1.898-2.808,4.134c0,2.262,0.858,4.16,2.808,4.16H72.506z M75.652-50.446c1.482-0.676,2.469-2.236,2.469-4.342
				c0-2.236-1.145-3.848-2.547-4.42c-0.104-0.026-0.026-0.156,0.182-0.156c2.21-0.026,3.77-0.13,4.992-0.156
				c0.156,0,0.207,0.13,0.207,0.26c0,0.234-0.207,0.65-0.416,0.65c-0.648,0-2.131-0.234-3.041-0.286
				c1.117,0.572,2.236,1.768,2.236,4.108c0,2.262-1.457,4.03-3.875,4.498C75.703-50.238,75.521-50.368,75.652-50.446z M76.718-40.67
				c1.56-0.52,2.522-1.898,2.522-3.432c0-1.3-0.703-2.522-2.186-3.042c-0.154-0.026,0.078-0.156,0.262-0.13
				c2.442,0.26,3.561,1.586,3.561,3.146c0,1.846-1.352,3.224-3.898,3.614C76.796-40.462,76.535-40.592,76.718-40.67z"/>
		</g>
		<g>
			<path fill="#B4B4B4" d="M83.698-53.28c0-2.184-0.13-4.368-0.233-4.992c-0.104-0.52-0.91-0.572-1.535-0.624
				c-0.129,0-0.104-0.52,0-0.52c0.91,0.052,1.795,0.052,2.68,0.026c-0.131,1.612-0.313,3.744-0.313,6.136v1.326
				c0,1.794,0.182,4.316,0.391,6.006c-0.858-0.026-1.69-0.026-2.522,0.026c-0.104,0-0.13-0.52,0-0.546
				c0.676,0,1.326-0.208,1.379-0.624c0.155-0.962,0.155-2.86,0.155-4.992L83.698-53.28L83.698-53.28z M86.012-53.072
				c0-2.938-0.234-4.914-0.363-6.292l1.3-0.026c0.233,0,0.39,0.13,0.415,0.39c0,0.546-0.104,2.314-0.104,3.406
				c0.416-2.002,2.055-3.926,4.344-3.926c1.064,0,1.611,0.468,1.769,0.962c0.129,0.442,0.051,1.066-0.026,1.404
				c-0.025,0.104-0.468,0.13-0.494,0c-0.233-0.65-0.779-1.222-1.689-1.222c-1.689,0-3.068,1.56-3.535,3.276
				c-0.184,0.598-0.287,1.664-0.287,2.47v1.3c0,1.612,0.131,3.614,0.234,4.238c0.078,0.442,0.754,0.598,1.742,0.676
				c0.182,0,0.156,0.52,0,0.52c-1.17-0.052-2.366-0.052-3.642-0.026c0.132-1.248,0.339-3.276,0.339-5.772v-1.378H86.012z"/>
		</g>
		<g>
			<path fill="#B4B4B4" d="M93.992-52.682c0-3.874,2.027-6.162,4.004-6.682c0.182-0.052,0.468,0.026,0.313,0.104
				c-1.82,0.702-3.303,2.964-3.303,6.578c0,3.64,1.846,5.928,3.691,6.604c0.131,0.052-0.182,0.208-0.338,0.13
				C96.254-46.52,93.992-48.808,93.992-52.682z M98.541-52.76c0,4.082,1.664,6.396,4.707,6.396c2.496,0,3.744-1.508,4.107-2.834
				c0.053-0.182,0.52-0.182,0.547-0.026c0.024,0.468,0.024,1.352-0.209,1.82c-0.26,0.624-1.223,1.612-4.551,1.612
				c-4.394,0-6.369-2.756-6.369-6.916c0-3.952,1.664-6.813,4.705-6.813c2.86,0,3.875,2.834,3.928,6.76L98.541-52.76L98.541-52.76z
				 M103.846-53.306c0.362,0,0.493-0.13,0.493-0.442c-0.026-2.808-0.729-5.148-2.651-5.148c-2.185,0-3.095,2.366-3.146,5.59H103.846
				z M106.939-52.708c0.207-3.224-0.65-5.616-2.471-6.5c-0.156-0.104,0.131-0.182,0.26-0.156c2.496,0.598,3.9,3.146,3.9,6.214
				c0,0.312-0.13,0.442-0.313,0.442H106.939z"/>
		</g>
		<g>
			<path fill="#B4B4B4" d="M109.984-52.682c0-3.874,2.027-6.162,4.004-6.682c0.182-0.052,0.469,0.026,0.313,0.104
				c-1.82,0.702-3.303,2.964-3.303,6.578c0,3.64,1.846,5.928,3.691,6.604c0.131,0.052-0.183,0.208-0.338,0.13
				C112.246-46.52,109.984-48.808,109.984-52.682z M114.535-52.76c0,4.082,1.664,6.396,4.705,6.396c2.496,0,3.744-1.508,4.107-2.834
				c0.053-0.182,0.521-0.182,0.547-0.026c0.024,0.468,0.024,1.352-0.209,1.82c-0.261,0.624-1.222,1.612-4.549,1.612
				c-4.396,0-6.371-2.756-6.371-6.916c0-3.952,1.664-6.813,4.707-6.813c2.858,0,3.873,2.834,3.926,6.76L114.535-52.76L114.535-52.76
				z M119.838-53.306c0.365,0,0.494-0.13,0.494-0.442c-0.025-2.808-0.729-5.148-2.652-5.148c-2.184,0-3.094,2.366-3.145,5.59
				H119.838z M122.931-52.708c0.209-3.224-0.648-5.616-2.47-6.5c-0.155-0.104,0.129-0.182,0.261-0.156
				c2.495,0.598,3.899,3.146,3.899,6.214c0,0.312-0.131,0.442-0.313,0.442H122.931z"/>
		</g>
		<g>
			<path fill="#B4B4B4" d="M127.055-53.046c0-2.392-0.156-4.628-0.232-5.2c-0.078-0.52-0.938-0.572-1.535-0.624
				c-0.129-0.026-0.104-0.546,0-0.546c0.91,0.052,1.795,0.052,2.678,0.026c-0.104,1.404-0.311,3.718-0.311,6.474v0.988
				c0,1.846,0.232,4.342,0.414,6.006c-0.857-0.026-1.74-0.026-2.601,0.026c-0.104,0-0.129-0.52,0-0.546
				c0.625-0.052,1.38-0.208,1.431-0.572c0.131-0.962,0.156-2.73,0.156-4.732V-53.046z M129.369-53.02c0-2.964-0.26-4.94-0.363-6.344
				h1.143c0.34-0.026,0.47,0.078,0.494,0.313c0,0.572-0.051,1.898-0.024,2.704c0.44-1.768,1.795-3.172,3.69-3.172
				c2.211,0,3.068,1.56,3.068,3.796c0,1.274-0.051,2.47-0.051,3.926v0.936c0,2.444,0.26,4.186,0.363,4.94
				c-0.779-0.026-1.533-0.026-2.262,0.026c-0.104,0-0.132-0.52,0-0.546c0.598-0.052,1.065-0.182,1.116-0.52
				c0.156-0.832,0.183-2.054,0.183-4.108v-1.794c0-4.056-0.623-5.876-2.572-5.876c-1.639,0-2.705,1.3-3.25,3.042
				c-0.156,0.702-0.209,1.794-0.209,2.964v1.3c0,2.756,0.104,3.718,0.234,4.446c0.077,0.416,0.52,0.52,1.116,0.572
				c0.156,0,0.132,0.546,0,0.52c-0.937-0.052-1.976-0.052-3.017-0.026c0.104-1.04,0.339-3.146,0.339-5.772L129.369-53.02
				L129.369-53.02z M139.041-52.136c0-4.758-0.52-6.422-1.898-7.124c-0.104-0.052,0.053-0.156,0.234-0.13
				c2.211,0.286,3.172,1.82,3.172,4.186c0,1.43-0.182,2.964-0.182,4.368c0,1.222,0.025,2.808,0.26,3.796
				c0.104,0.468,0.807,0.546,1.404,0.598c0.156,0.026,0.131,0.546,0,0.546c-1.092-0.052-2.184-0.052-3.25-0.026
				c0.156-2.002,0.26-3.588,0.26-4.992V-52.136L139.041-52.136z"/>
		</g>
	</g>
</g>
</svg>
