<?xml version="1.0" encoding="utf-8"?>
<!-- Generator: Adobe Illustrator 12.0.0, SVG Export Plug-In . SVG Version: 6.00 Build 51448)  -->
<!DOCTYPE svg PUBLIC "-//W3C//DTD SVG 1.1//EN" "http://www.w3.org/Graphics/SVG/1.1/DTD/svg11.dtd" [
	<!ENTITY ns_svg "http://www.w3.org/2000/svg">
	<!ENTITY ns_xlink "http://www.w3.org/1999/xlink">
]>
<svg  version="1.1" id="レイヤー_1" xmlns="&ns_svg;" xmlns:xlink="&ns_xlink;" width="150" height="30"
	 viewBox="0.658 -0.751 150 30" overflow="visible" enable-background="new 0.658 -0.751 150 30" xml:space="preserve">
<g>
	<g>
		<g>
			<path fill="#009696" d="M30.119,23.561c-0.168,0-0.308-0.141-0.392-0.421c-0.532-2.409-1.289-5.519-2.269-9.636
				c-0.896-3.669-1.625-6.079-2.241-8.04c-0.112-0.476-0.785-0.532-1.485-0.56c-0.168,0-0.168-0.588,0-0.588
				c0.84,0.056,1.765,0.056,2.633,0.028c0.392,2.241,0.868,5.323,1.765,8.992c0.98,4.118,2.017,7.368,3.025,10.197L30.119,23.561z
				 M39.559,4.373c0.56,2.409,1.345,6.079,2.213,9.244c0.98,3.669,2.185,7.031,3.278,9.917l-1.037,0.028
				c-0.196,0-0.336-0.141-0.392-0.421c-0.645-2.549-1.485-5.546-2.493-9.216c-0.924-3.277-1.485-4.93-2.101-7.087h-0.14
				c-0.728,2.241-1.484,4.454-2.213,6.807c-0.896,2.913-1.821,6.275-2.745,9.58c-0.056,0.196-0.14,0.309-0.336,0.309h-1.316
				C31.66,20.34,30.847,17.006,29.895,13c-0.84-3.417-1.541-6.219-2.381-8.656c1.232,0.028,2.521,0.056,3.866-0.028
				c0.168-0.028,0.168,0.561,0,0.588c-0.56,0.056-1.261,0.224-1.232,0.644c0.168,1.793,0.532,3.838,1.26,7.144
				c0.813,3.502,1.429,5.603,2.101,8.124h0.196c0.756-2.521,1.429-4.482,2.297-7.368c0.756-2.437,1.653-5.743,2.465-8.656
				c0.084-0.336,0.168-0.42,0.308-0.42H39.559z M42.277,4.373c0.308,0,0.476,0.112,0.56,0.504c0.504,2.073,1.121,4.482,2.045,7.675
				c0.98,3.417,1.765,5.911,2.521,8.292h0.14c0.588-2.465,1.289-4.986,1.933-7.759c0.672-2.829,1.316-5.687,1.597-7.563
				c0.056-0.42-0.588-0.588-1.429-0.616c-0.168,0-0.14-0.588,0-0.588c1.345,0.056,2.717,0.028,4.174,0c0.168,0,0.196,0.561,0,0.588
				c-0.532,0.028-1.148,0.084-1.344,0.616c-0.785,1.905-1.513,4.846-2.269,7.731c-0.729,2.83-1.597,6.359-2.438,9.945
				c-0.028,0.196-0.14,0.336-0.308,0.336H46.17c-0.644-2.857-1.597-6.751-2.689-10.477c-0.924-3.11-1.933-6.415-2.83-8.684H42.277z"
				/>
		</g>
		<g>
			<path fill="#009696" d="M53.958,13.953c0-5.014,2.437-8.74,5.378-9.58c0.196-0.056,0.532,0.084,0.364,0.168
				c-2.801,1.148-4.594,4.846-4.594,9.412s1.792,8.264,4.594,9.441c0.168,0.111-0.196,0.195-0.364,0.14
				C56.395,22.692,53.958,18.967,53.958,13.953z M63.511,23.701c-4.258,0-6.499-4.734-6.499-9.749s2.241-9.748,6.527-9.748
				c4.23,0,6.527,4.734,6.527,9.748s-2.297,9.749-6.527,9.749H63.511z M64.014,22.889c3.278,0,4.902-4.481,4.902-8.936
				c0-4.454-1.625-8.936-4.93-8.936s-4.93,4.482-4.93,8.936c0,4.455,1.625,8.936,4.93,8.936H64.014z M67.348,23.421
				c2.802-1.204,4.623-4.902,4.623-9.468S70.15,5.689,67.376,4.54c-0.168-0.056,0.168-0.196,0.308-0.168
				c3.669,0.644,6.275,4.398,6.275,9.58s-2.661,8.852-6.275,9.581C67.488,23.589,67.208,23.478,67.348,23.421z"/>
		</g>
		<g>
			<path fill="#009696" d="M77.489,11.852c0-3.53-0.112-4.986-0.224-6.275c-0.057-0.532-0.925-0.645-1.738-0.672
				c-0.168,0-0.14-0.588,0-0.588c1.121,0.056,2.017,0.056,2.998,0.028c-0.084,0.925-0.308,3.698-0.308,7.368v3.138
				c0,3.193,0.252,7.535,0.392,8.712c-0.924-0.028-1.736-0.028-2.801,0.027c-0.14,0-0.168-0.56,0-0.588
				c0.756-0.056,1.401-0.112,1.458-0.616c0.14-1.345,0.224-4.062,0.224-6.611V11.852z M80.066,11.684c0-3.277-0.28-5.714-0.42-7.115
				c0.98-0.196,2.157-0.308,3.726-0.308c3.529,0,5.183,1.933,5.183,4.93c0,2.689-1.766,4.623-3.754,5.267v0.056
				c0.896,0.336,1.597,1.064,1.988,2.044c0.645,1.766,1.682,5.351,3.082,6.976l-0.952,0.028c-0.309,0-0.589-0.112-0.757-0.393
				c-0.672-1.036-1.513-4.79-2.101-6.274c-0.337-0.785-0.896-1.625-1.766-1.905c-0.308-0.112-0.7-0.14-1.204-0.14
				s-1.036,0-1.513,0.027v2.241c0,3.193,0.084,4.51,0.225,5.238c0.084,0.477,0.728,0.589,1.484,0.645
				c0.196,0.028,0.168,0.616,0,0.588c-1.093-0.056-2.381-0.056-3.586-0.027c0.112-1.345,0.364-4.763,0.364-8.124V11.684z
				 M81.579,13.728c0,0.393,0.28,0.477,1.457,0.477c2.969,0,4.37-2.521,4.37-5.015c0-2.493-1.149-4.342-3.782-4.342
				c-1.316,0-1.989,0.308-1.989,0.645L81.579,13.728z M92.42,9.19c0,2.802-2.269,4.594-3.838,5.239v0.056
				c0.757,0.336,1.345,1.176,1.681,1.961c0.785,1.765,1.597,4.37,2.634,5.967c0.224,0.363,0.813,0.504,1.484,0.56
				c0.196,0.028,0.168,0.645,0,0.616c-0.925-0.056-2.129-0.056-3.222-0.027c-0.924-1.345-1.933-5.295-2.577-6.808
				c-0.392-0.924-0.98-1.793-1.904-2.241v-0.056c2.325-0.98,3.781-2.829,3.781-5.294c0-2.381-1.177-3.95-2.857-4.566
				C87.433,4.54,87.685,4.4,87.853,4.429C90.431,4.737,92.42,6.249,92.42,9.19z"/>
		</g>
		<g>
			<path fill="#009696" d="M96.482,12.72c0-3.81-0.14-5.883-0.28-7.199c-0.056-0.532-0.672-0.56-1.652-0.616
				c-0.168,0-0.141-0.588,0-0.588c0.924,0.056,1.961,0.056,2.969,0.028c-0.111,1.989-0.308,4.707-0.308,7.9v2.745
				c0,1.737,0.14,5.351,0.42,8.572c-0.98-0.028-2.101-0.028-2.829,0.027c-0.141,0-0.168-0.56,0-0.56
				c0.561-0.084,1.484-0.112,1.513-0.561c0.112-1.232,0.168-4.986,0.168-7.563V12.72z M99.059,11.684
				c0-3.277-0.252-5.911-0.364-7.339c1.232,0.028,2.409,0.028,3.445-0.028c0.169-0.028,0.196,0.561,0,0.588
				c-0.588,0.028-1.316,0.056-1.372,0.532c-0.168,1.737-0.225,3.95-0.225,6.247v2.465c0,0.168,0.141,0.196,0.28,0.056
				c0.448-0.42,0.925-0.924,1.457-1.541c0.729,1.765,1.513,3.166,2.745,5.211c1.4,2.297,2.465,3.922,3.865,5.658l-1.316,0.028
				c-0.195,0-0.308-0.141-0.392-0.28c-0.784-1.457-1.569-2.941-2.773-4.931c-0.952-1.568-1.765-2.885-2.438-3.866
				c-0.14-0.224-0.252-0.224-0.784,0.365c-0.588,0.588-0.645,0.728-0.645,1.036v0.672c0,1.766,0.168,5.351,0.253,5.939
				c0.056,0.448,0.784,0.476,1.372,0.532c0.196,0,0.168,0.588,0,0.56c-1.12-0.056-2.157-0.056-3.445-0.027
				c0.084-1.093,0.336-4.006,0.336-7.956V11.684z M105.362,9.527c1.569-1.597,2.886-3.082,3.838-4.202
				c0.168-0.252-0.336-0.364-1.4-0.42c-0.168-0.028-0.141-0.616,0.056-0.588c1.232,0.112,3.334,0.056,4.342,0
				c0.196-0.028,0.196,0.561,0.028,0.588c-0.588,0.028-1.064,0.112-1.513,0.476c-2.073,1.849-4.034,3.838-5.574,5.378
				c-0.196,0.224-0.196,0.42-0.057,0.7c0.7,1.205,1.625,2.857,2.97,5.014c1.484,2.382,2.717,4.258,3.865,5.743
				c0.505,0.616,0.896,0.729,1.793,0.784c0.196,0.028,0.196,0.616,0,0.588c-1.12-0.056-2.549-0.056-3.333-0.027
				c-1.009-1.989-2.27-4.23-3.698-6.527c-1.372-2.185-2.409-3.698-3.529-5.238C103.878,11.067,104.55,10.339,105.362,9.527z"/>
		</g>
		<g>
			<path fill="#009696" d="M117.828,23.701c-2.438,0-3.922-0.588-4.034-1.148s-0.28-1.877-0.28-2.913c0-0.225,0.616-0.225,0.645,0
				c0.42,2.101,1.568,3.361,3.81,3.361c2.549,0,4.202-1.204,4.202-3.558c0-2.241-1.373-3.613-4.034-4.79
				c-2.941-1.373-4.65-3.25-4.65-5.547c0-2.717,2.073-4.426,3.782-4.762c0.168-0.028,0.504,0.112,0.308,0.196
				c-1.624,0.56-2.941,2.129-2.941,4.37c0,2.269,1.373,4.006,4.063,5.294c2.857,1.316,4.565,2.689,4.565,5.154
				c0,2.605-2.045,4.342-5.406,4.342H117.828z M122.113,23.394c1.85-0.785,2.83-2.438,2.83-4.398c0-2.773-1.737-4.426-4.37-5.575
				c-2.577-1.232-4.314-2.521-4.286-4.762c-0.028-2.633,2.101-4.454,5.715-4.454c2.493,0,3.613,0.56,3.726,0.952
				c0.14,0.588,0.224,1.961,0.224,2.857c0,0.224-0.588,0.252-0.645,0c-0.476-1.989-1.26-3.166-3.445-3.166
				c-2.213,0-3.726,1.261-3.726,3.362c0,2.045,1.345,3.193,3.67,4.286c2.885,1.317,5.014,2.997,5.014,5.995
				c0,2.997-2.101,4.678-4.369,5.042C122.281,23.589,122.002,23.449,122.113,23.394z"/>
		</g>
	</g>
</g>
</svg>
